<?xml version="1.0" encoding="utf-8"?>
<!-- Generator: Adobe Illustrator 23.0.0, SVG Export Plug-In . SVG Version: 6.00 Build 0)  -->
<svg version="1.1" id="Capa_1" xmlns="http://www.w3.org/2000/svg" xmlns:xlink="http://www.w3.org/1999/xlink" x="0px" y="0px"
	 viewBox="0 0 1210.4 401.6" style="enable-background:new 0 0 1210.4 401.6;" xml:space="preserve">
<style type="text/css">
	.st0{fill:#FFB81C;}
	.st1{fill:#76232F;}
	.st2{fill:#FFFFFF;stroke:#FFFFFF;stroke-miterlimit:10;}
</style>
<g>
	<path class="st0" d="M47.6,0C21.3,0,0,21.3,0,47.6V354c0,26.3,21.3,47.6,47.6,47.6h354V0H47.6z"/>
	<path class="st1" d="M1162.8,0h-354H407.2v401.6h401.6h354c26.3,0,47.6-21.3,47.6-47.6V47.6C1210.4,21.3,1189.1,0,1162.8,0z"/>
	<g>
		<g>
			<g>
				<g>
					<path class="st0" d="M458.5,108.7h25l27.1,62.3l4.3,9.8l3.3,7.6h0.7c1-2.9,3.5-8.7,7.4-17.5l27.3-62.3h25l5,129.3h-28.5
						l-1-44.1c0-2.9-0.1-6.7-0.3-11.3l-0.2-10.2c0-2.3,0.1-3.8,0.2-4.4h-0.7c-0.3,1.3-1,2.9-1.9,4.8c-0.9,1.9-1.6,3.3-1.9,4.3
						l-18.5,46.1h-24.5L487.8,177c-0.3-1-1-2.4-1.9-4.3c-0.9-1.9-1.6-3.5-1.9-4.8h-0.7c0.2,2.2,0.3,5.3,0.3,9.3
						c0,2.3-0.1,7.8-0.3,16.6L482,238h-28.5L458.5,108.7z"/>
					<path class="st0" d="M639.1,216.1h60.3l-1.7,21.9h-86.3V108.7h88.1l-1.7,21.9h-58.5v31h55.1l-1.7,21.9h-53.4v32.6H639.1z"/>
					<path class="st0" d="M816,238h-30.2l-5-27.9c-1.2-6.4-2.6-10.8-4.2-13s-4.1-3.4-7.3-3.4h-18.8V238h-27.6V108.7h45.4
						c9.1,0,17.1,1.8,24,5.4s12.2,8.7,16,15.4c3.7,6.7,5.6,14.5,5.6,23.5c0,7.3-1.5,13.8-4.6,19.7c-3.1,5.8-6.9,10.1-11.7,12.9v0.7
						c3.3,2.1,5.7,4.5,7.2,7.2c1.4,2.7,2.7,6.5,3.7,11.2L816,238z M779.4,166.5c4-3.6,6-8.4,6-14.5c0-7.5-1.9-13-5.8-16.4
						c-3.9-3.4-9.5-5.1-17-5.1h-12.3v41.3h12.3C769.7,171.8,775.3,170.1,779.4,166.5z"/>
					<path class="st0" d="M836.9,108.7h27.6v51.2l35.6-51.2h29.4l-38.2,54.1l40.9,75.2h-29.4l-29.5-54.5l-8.8,12.9V238h-27.6V108.7z
						"/>
					<path class="st0" d="M975.7,216.1h60.3l-1.7,21.9H948V108.7h88.1l-1.7,21.9h-58.5v31h55.1l-1.7,21.9h-53.4v32.6H975.7z"/>
					<path class="st0" d="M1126.4,212.3h-42L1076,238h-28.5l43.7-129.3h28.5l43.7,129.3h-28.5L1126.4,212.3z M1119.5,191.3
						l-8.1-24.4c-2.7-8.1-4.5-15.4-5.5-21.7h-0.7c-0.7,4.5-2.6,11.6-5.9,21.3l-8.1,24.8L1119.5,191.3L1119.5,191.3z"/>
				</g>
			</g>
		</g>
		<g>
			<path class="st2" d="M483.3,261.1v31.5h-3.2v-25.2l-12.3,21.2h-1.6l-12.2-21v25.1h-3.2v-31.5h2.7l13.6,23.4l13.4-23.4h2.8V261.1z
				"/>
			<path class="st2" d="M502.3,261.1h3.3v31.5h-3.3V261.1z"/>
			<path class="st2" d="M550.8,261.1v31.5h-2.7L528,267.1v25.6h-3.3v-31.5h2.7l20.1,25.6v-25.6h3.3V261.1z"/>
			<path class="st2" d="M569.9,261.1h3.3v31.5h-3.3V261.1z"/>
			<path class="st2" d="M645.3,261.1v31.5h-3.2v-25.2l-12.3,21.2h-1.6l-12.3-21.1v25.1h-3.2v-31.5h2.7l13.6,23.4l13.4-23.4H645.3z"
				/>
			<path class="st2" d="M684,284.3h-17.4l-3.7,8.4h-3.4l14.3-31.5h3.3l14.3,31.5h-3.5L684,284.3z M682.8,281.6l-7.5-16.9l-7.5,16.9
				H682.8z"/>
			<path class="st2" d="M726.7,292.7l-7.1-10.1c-0.8,0.1-1.6,0.1-2.5,0.1h-8.4v10h-3.3v-31.5H717c7.9,0,12.8,4.1,12.8,10.8
				c0,5-2.6,8.4-7.1,9.9l7.6,10.8L726.7,292.7L726.7,292.7z M726.5,272c0-5-3.3-7.9-9.5-7.9h-8.3v15.8h8.3
				C723.2,279.8,726.5,276.9,726.5,272z"/>
			<path class="st2" d="M756.2,277.9l-6.4,6.5v8.3h-3.3v-31.5h3.3v19.1l18.3-19.1h3.8l-13.5,14.3l14.5,17.3H769L756.2,277.9z"/>
			<path class="st2" d="M809.2,289.8v2.9h-22.1v-31.5h21.4v2.9h-18.1v11.2h16.1v2.8h-16.1v11.7H809.2z"/>
			<path class="st2" d="M832,264h-11v-2.9h25.2v2.9h-11v28.7H832V264z"/>
			<path class="st2" d="M903,276.9h3.2v12c-2.9,2.7-7.1,4-11.5,4c-9.5,0-16.5-6.8-16.5-16s7-16,16.5-16c4.7,0,8.8,1.5,11.6,4.6
				l-2,2.1c-2.6-2.6-5.8-3.7-9.4-3.7c-7.7,0-13.4,5.5-13.4,13.1c0,7.5,5.7,13.1,13.3,13.1c3,0,5.8-0.7,8.2-2.4L903,276.9L903,276.9z
				"/>
			<path class="st2" d="M921.7,276.9c0-9.2,7-16,16.4-16s16.4,6.8,16.4,16s-7,16-16.4,16C928.6,293,921.7,286.1,921.7,276.9z
				 M951.2,276.9c0-7.5-5.6-13.1-13.1-13.1s-13.2,5.5-13.2,13.1s5.6,13.1,13.2,13.1C945.6,290,951.2,284.4,951.2,276.9z"/>
			<path class="st2" d="M970.5,279.2v-18.1h3.3V279c0,7.5,3.5,10.9,9.5,10.9c6.1,0,9.6-3.4,9.6-10.9v-17.9h3.2v18.1
				c0,9.1-4.8,13.7-12.8,13.7C975.4,293,970.5,288.3,970.5,279.2z"/>
			<path class="st2" d="M1036.4,292.7l-7.1-10.1c-0.8,0.1-1.6,0.1-2.5,0.1h-8.4v10h-3.3v-31.5h11.7c7.9,0,12.8,4.1,12.8,10.8
				c0,5-2.6,8.4-7.1,9.9l7.6,10.8L1036.4,292.7L1036.4,292.7z M1036.2,272c0-5-3.3-7.9-9.5-7.9h-8.3v15.8h8.3
				C1032.9,279.8,1036.2,276.9,1036.2,272z"/>
			<path class="st2" d="M1088.6,261.1v31.5h-3.2v-25.2l-12.3,21.2h-1.6l-12.3-21.1v25.1h-3.2v-31.5h2.7l13.6,23.4l13.4-23.4H1088.6z
				"/>
			<path class="st2" d="M1129.8,289.8v2.9h-22.1v-31.5h21.4v2.9H1111v11.2h16.1v2.8H1111v11.7H1129.8z"/>
			<path class="st2" d="M1152.6,264h-11v-2.9h25.2v2.9h-11v28.7h-3.3V264H1152.6z"/>
		</g>
	</g>
	<g>
		<g>
			<path class="st1" d="M314.1,162.3c-0.5,1.8-1.1,3.6-1.7,5.3C313,165.9,313.6,164.1,314.1,162.3z"/>
			<path class="st1" d="M117.8,238.7c-0.1,0-0.1-0.1-0.2-0.1C117.7,238.6,117.7,238.6,117.8,238.7z"/>
			<path class="st1" d="M119.8,243.6L119.8,243.6L119.8,243.6z"/>
			<path class="st1" d="M316.7,152.4L316.7,152.4c0,0.2-0.1,0.3-0.1,0.5C316.6,152.7,316.6,152.6,316.7,152.4z"/>
			<path class="st1" d="M315.8,156.3c0,0.1-0.1,0.2-0.1,0.3C315.7,156.5,315.8,156.4,315.8,156.3z"/>
			<path class="st1" d="M120.1,240.3c0,0-0.1,0-0.1-0.1C120.1,240.2,120.1,240.3,120.1,240.3z"/>
			<path class="st1" d="M202.1,94.8L202.1,94.8L202.1,94.8L202.1,94.8z"/>
			<path class="st1" d="M332.3,318.9c11.2-3.3,19.2-6.6,21.1-9.5c0.5-0.8,1.1-3.4,1.7-7.1c-0.6,3.4-1.1,5.8-1.7,6.7
				C351.3,312.2,343.3,315.7,332.3,318.9z"/>
			<path class="st1" d="M189.3,173.5C189.3,173.6,189.4,173.6,189.3,173.5c0.6-9.2,1-17.9,1.3-26.1v-0.9c-0.9-0.4-1.8-1.1-2.5-1.8
				c-0.7,0.3-1.5,0.5-2.2,0.5C187.2,155.1,188.3,164.4,189.3,173.5z"/>
			<path class="st1" d="M176.6,161.8c2.5,1.7,5,3.7,7.3,5.9c-0.8-7.3-1.7-14.2-2.5-20.8c-1.3-0.3-2.7-1.2-4.3-2.8
				c-0.2,2.5-0.9,4.9-2,6.9c-0.2,0.4-0.5,0.7-0.7,1c0.2,1,0.4,2,0.7,2.9C175.6,157.2,176.1,159.5,176.6,161.8z"/>
			<path class="st1" d="M260,330.2c0.6-2.6,2.3-4.9,4.9-5.8C261.9,324.9,260.3,327.4,260,330.2z"/>
			<g>
				<path class="st1" d="M43.2,187H95c0.4-0.6,0.9-1.1,1.5-1.5c1.2-1,2.8-1.6,4.6-1.9c-0.1-0.4-0.1-0.7-0.2-1.1c-0.2-1-0.3-2-0.4-3
					c-0.2-2.3-0.3-4.6-0.4-6.9c-0.2-4.7-0.4-9.6-1.2-14.3c-1.1-6.7-4.7-12.8-10.8-17.9c-0.7-0.6-1.2-1.4-1.7-2.1
					c-0.2-0.3-0.4-0.7-0.7-1c-0.1-0.1-0.1-0.2-0.1-0.4s0.1-0.2,0.2-0.3l1.3-0.9c0.2-0.1,0.4-0.1,0.5,0c7.2,4.5,12,11.1,14.6,20.5
					c2.5,8.8,2,17.8,1.5,26.5v0.6c2.4,0,5.3,0.4,8.5,1.1c0-1.9,0-3.8,0-5.7c0.1-6.5,0.1-12.7-0.1-18.9c-0.5-11.7-5.7-21.1-15.2-27.9
					c-4.5-3.2-7.1-8.1-7.7-14.1c-0.3-3.7-0.5-7.5-0.6-11.7c-0.1-6.3-0.1-12.6-0.1-18.9c0-6.6-0.1-13.2-0.1-19.9
					c0-1.4-0.2-2.8-0.4-4.2c-0.1-0.5-0.2-1-0.2-1.6H67.4c-0.1,0.7-0.1,1.3-0.2,1.9c-0.2,1.5-0.3,2.9-0.4,4.3
					c-0.1,7.5-0.1,14.9-0.1,22.4s-0.1,14.9-0.1,22.4c-0.1,9.3-3.5,16.3-10.5,21.1c-6.8,4.8-11,11.4-11.7,18.6
					c-0.9,8.1-1,16.4-1.1,24.5c-0.1,3.3-0.1,6.6-0.2,9.9C43.1,186.9,43.2,186.9,43.2,187L43.2,187z"/>
				<path class="st1" d="M69.1,50.9c2.1,0.2,4.3,0.1,6.4,0.1c0.8,0,1.6,0,2.4,0l0,0c0.8,0,1.6,0,2.4,0c2,0,4,0.1,6-0.1
					c0.5,0,1-0.5,1.5-1c0.2-0.1,0.3-0.3,0.5-0.4c-0.2-0.2-0.3-0.4-0.5-0.7c-0.4-0.5-0.9-1.4-1.2-1.4c-5.8-0.2-11.7-0.2-17.6,0
					c-0.3,0-0.9,0.8-1.3,1.4c-0.2,0.2-0.3,0.4-0.5,0.7c0.2,0.1,0.3,0.3,0.5,0.4C68.1,50.3,68.6,50.9,69.1,50.9z"/>
				<path class="st1" d="M65.8,57.4l0.3,0.4h23.1l0.3-0.4c-0.2-0.2-0.5-0.5-0.7-0.7c-0.6-0.7-1.3-1.4-1.8-1.4
					c-6.2-0.2-12.5-0.2-18.9,0c-0.5,0-1.1,0.8-1.7,1.4C66.3,56.9,66.1,57.2,65.8,57.4z"/>
				<path class="st1" d="M53.8,215.8h42.8c-1.2-4.6-2.1-9.3-2.7-13.7H43.7v57.2h45.2c-0.5-0.6-1-1.2-1.5-1.7c-0.5-0.6-1-1.1-1.3-1.4
					c-2.8-2.9-1.6-7.3-1.5-7.5c0.2-1.1,0.5-2.1,0.8-3.2c-2.9,0-5.8,0-8.8,0c-6.2,0-12.7,0-19.4,0c-0.8,0-1.5-0.3-2.2-0.6
					c-0.3-0.1-0.6-0.2-0.9-0.3c-0.2-0.1-0.4-0.3-0.3-0.6l0.3-1.4c0.1-0.2,0.3-0.4,0.5-0.4h31.9c3.9-11.3,10.4-17.1,12.5-18.9
					c-0.5-1.5-1-3-1.5-4.5c-6.4,0-13,0-20,0c-6.8,0-14,0-21.6,0c-0.7,0-1.2-0.3-1.8-0.6c-0.2-0.1-0.5-0.2-0.7-0.3s-0.4-0.3-0.3-0.6
					l0.2-1.2C53.3,216,53.5,215.8,53.8,215.8z M60.9,224c13.3-2.5,24-2.5,33.7,0c0.2,0.1,0.8,0.2,0.7,0.7c-0.1,0.5-0.1,0.9-11.1,1
					c-1.1,0-2.3,0-3.5,0c-5,0-10.5-0.1-14.4-0.2c-6.1-0.2-6.1-0.4-6.2-0.9C60.2,224.2,60.8,224.1,60.9,224z"/>
				<path class="st1" d="M65.8,40.8c-0.1,0.9,0.1,1.6,0.5,2c0.5,0.5,1.3,0.7,2.5,0.7c2.1-0.1,4.2-0.1,6.2,0c0.8,0,1.7,0,2.5,0h0.1
					c0.9,0,1.8,0,2.7,0c2,0,4.1,0,6.2,0c1.2,0.1,2-0.2,2.5-0.7c0.4-0.4,0.6-1.1,0.6-2c0-0.5,0-1.1,0-1.6c0.1-1.1,0.2-2.3-0.4-3
					c-0.3-0.4-0.9-0.6-1.8-0.6c-3.3-0.2-6.6-0.2-9.9-0.2c-3.2,0-6.4,0.1-9.6,0.2c-0.8,0-1.4,0.2-1.8,0.6c-0.6,0.6-0.5,1.8-0.4,2.9
					C65.8,39.7,65.8,40.3,65.8,40.8z"/>
				<path class="st1" d="M43.6,191v6.6h49.8c-0.1-1.3-0.2-2.5-0.2-3.7c0-1,0-2,0.2-2.9L43.6,191L43.6,191z"/>
				<path class="st1" d="M43.6,270.2h55.5c0.2-0.2,0.5-0.5,0.7-0.7c-2.6-1.9-4.9-4-6.9-5.9H43.6V270.2z"/>
				<path class="st1" d="M75.3,334.8c-0.1-0.1-0.2-0.3-0.1-0.5s0.2-0.3,0.4-0.3c0.6-0.1,1.2-0.2,1.7-0.2c1-0.1,1.9-0.3,2.8-0.3
					l1.2-0.1c1.5-0.1,3-0.3,4.4-0.4c-2.6-6.7-4-13.8-4-21c0-14.4,5.1-27.5,13.7-37.7H42.8v50.8c0,8.8,2.1,11.9,10.1,15.1
					c12.2,4.8,24.7,4.4,34.3,3.5c1.2-0.1,2.4-0.3,3.7-0.4c-1.3-2.1-2.5-4.3-3.6-6.5C82,337.3,77.5,336.9,75.3,334.8z"/>
				<path class="st1" d="M262.3,172c0.2,0.2,0.5,0.4,0.7,0.6c0.3,0.2,0.5,0.5,0.8,0.7c0.2,0.2,0.3,0.3,0.4,0.5
					c0.3,0.4,0.6,0.7,0.8,1.1c0.1,0.1,0.2,0.2,0.2,0.4c0.3,0.5,0.6,1,0.9,1.6l0,0c1.7,3.7,2.2,8.1,2.3,12.6v0.1c0,0.7,0,1.3,0,2
					c0,0.1,0,0.2,0,0.3c0,0.6,0,1.2,0,1.8c0,0.1,0,0.3,0,0.4c0,0.5,0,0.9,0,1.4c0,0.2,0,0.4,0,0.6v1c-0.2,8.9-3.3,23.6-8.6,36.8
					c18.1-11.1,34.3-18.8,44.7-21.3c6.8-1.6,25.4,10.2,39.6,21.6c4.6-8.5,7.4-18.8,5.8-28c-1.1-6.6-4.2-11.8-9.4-15.7
					c-2.5,0.6-7.7,0.6-18.3-1.3c1.7,5.7,4.9,17.9,2.6,21.5c-0.5,0.8-1.3,1.3-2.1,1.3c-0.1,0-0.2,0-0.3,0c-5.1,0-13.2-13.8-17-20.8
					c-9.7,2-25.1,4.5-27.3,0.5c-0.3-0.5-0.5-1.3-0.2-2.3c1.3-4.2,12.7-10.7,17.8-13.5c-3.7-3.5-9.3-9-12.2-13.2
					c-2.4-0.3-4.8-0.3-7.3,0.1c-6.1,0.8-11.9,3.4-16.9,7.3c0.8,0.4,1.6,0.8,2.3,1.3C261.9,171.7,262.1,171.8,262.3,172z"/>
				<path class="st1" d="M286.6,161.9c0.5,0.6,1,1.2,1.6,1.9c2.9,3.4,7.2,7.7,11.3,11.6l1.5,1.4l-1.9,1c-9.6,5-18.1,10.9-18.2,12.7
					c1.3,1.4,12.8,0.4,25.2-2.3l1.1-0.2l0.5,1c5.8,10.9,12.6,20.2,14.8,20.2c0,0,0,0,0.1,0c1.3-1.2-0.4-11.2-3.7-21.4l-0.8-2.4
					l2.4,0.5c5.5,1,11.7,1.9,15.8,2c1.2,0,2.3,0,3,0c0.4,0,0.7-0.1,0.9-0.1c-0.3-0.6-1.1-1.3-2.2-2.2c-3-2.6-8.5-6.4-13.6-9.4
					l-1.6-1l1.3-1.3c3.9-4,7.3-8.3,8.1-10.2c-2.1,0.2-7.3,2-13.1,4.3c-1.5,4.2-3.2,8.4-4.9,11.4c-0.3,0.6-0.7,1.1-1,1.6
					c-0.5,0.8-1,1.4-1.5,1.9c-0.6,0.6-1.1,1-1.7,1.1c-0.1,0-0.2,0-0.3,0c-0.6,0-1.4-0.3-1.8-1.3c-0.3-0.6-0.4-2-0.4-3.7h-0.1v-0.2
					v-0.7c0-0.5,0-1.1,0.1-1.8c0-0.7,0.1-1.4,0.2-2.2c0.1-1,0.2-2.2,0.3-3.3c-7-6.7-20-11.6-23.3-11.3c0.1,0.2,0.3,0.5,0.5,0.8
					C285.6,160.7,286,161.3,286.6,161.9z"/>
				<path class="st1" d="M311.2,178.9c1.3-2.2,2.8-5.7,4.2-9.4c0.2-0.6,0.5-1.3,0.7-1.9c0.2-0.6,0.5-1.3,0.7-1.9
					c1.9-5.5,3.4-10.7,3.4-12.1c0-0.1-0.2-0.3-0.7-0.5c-0.8,3.6-2.1,8.5-3.5,13c-0.2,0.6-0.4,1.3-0.6,1.9c-0.2,0.6-0.4,1.3-0.6,1.9
					c-1.4,3.9-2.7,7.1-3.9,8.7c-0.2,0.2-0.3,0.4-0.5,0.5c0,0.4,0,0.8,0,1.1C310.7,179.7,311,179.3,311.2,178.9z"/>
				<path class="st1" d="M311.1,171.4c0.2-0.6,0.5-1.3,0.7-1.9c0.2-0.6,0.4-1.3,0.7-1.9c0.6-1.6,1.1-3.4,1.7-5.3
					c0.6-1.8,1.1-3.7,1.6-5.6c0-0.1,0.1-0.2,0.1-0.3c0.3-1.1,0.5-2.3,0.8-3.4c0-0.2,0.1-0.3,0.1-0.5l0,0c-0.3,0-0.5,0-0.7,0H316
					c-0.6,0-1.1,0.1-1.4,0.2l0,0c-0.1,0.1-0.1,0.3-0.2,0.5c-0.5,1.4-1.1,4.4-1.7,8c-0.4,2.1-0.7,4.5-1,6.8c-0.1,0.6-0.2,1.2-0.2,1.7
					C311.2,170.3,311.1,170.8,311.1,171.4c0,0.1,0,0.1-0.1,0.1C311,171.5,311,171.5,311.1,171.4L311.1,171.4z"/>
				<path class="st1" d="M192.6,147.5c-0.4,8.9-0.8,18.3-1.4,28.5c0.3,0.3,0.5,0.7,0.7,1c0.5-9.1,1-18.6,1.4-28.3
					c0-0.5,0-0.9,0.1-1.4c-0.3,0-0.5,0-0.8-0.1V147.5z"/>
				<path class="st1" d="M186.1,170c0.3,0.3,0.6,0.6,0.9,1c-0.9-8-1.9-16.1-2.9-24.6c-0.2,0.2-0.5,0.3-0.7,0.4
					C184.3,154.1,185.2,161.8,186.1,170z"/>
				<path class="st1" d="M173.3,159.8l0.1,0.1c0.3,0.1,0.5,0.3,0.8,0.4c-0.4-1.7-0.7-3.3-1.1-5c-0.1-0.6-0.3-1.2-0.4-1.7
					c-0.2,0.2-0.5,0.3-0.7,0.5l0.1,0.4C172.5,156.2,172.9,158,173.3,159.8z"/>
				<path class="st1" d="M173.8,113.2c0.1,0.1,0.2,0.3,0.3,0.4c0.2,0.2,0.4,0.5,0.6,0.7c-0.1-0.1-0.2-0.1-0.4-0.2c0,0-0.1,0-0.1-0.1
					c-0.1-0.1-0.2-0.1-0.4-0.2c-0.1-0.1-0.3-0.1-0.4-0.2c0,0.1,0,0.2,0,0.3c0,0.4,0.1,0.8,0.2,1.2c-0.3-0.5-0.5-1.2-0.8-1.7
					c0-0.1-0.2,0-0.2,0v0.1l0,0c0,0.7,0.2,1.4,0.3,2.1c0.2,0.6,0.4,1.1,0.6,1.7c0.2,0.4,0.6,0.9,1.1,1c0.1,0.3,0.3,0.5,0.4,0.7
					c0.1,0.1,0.2,0.2,0.3,0.3c0.2,0,0.5,0,0.8,0c-0.1-0.6-0.1-1.1-0.1-1.5c0-0.2,0-0.4,0-0.6c0-0.4,0.1-0.7,0.2-1.1
					c0-0.1,0-0.2,0.1-0.3c0.1-0.2,0.1-0.4,0.2-0.6c0-0.1,0.1-0.2,0.1-0.3c0-0.1,0.1-0.2,0.1-0.3c0-0.1,0.1-0.2,0.1-0.3
					c0.1-0.3,0.3-0.5,0.4-0.8c-0.2-0.1-0.4-0.2-0.6-0.3c-0.2-0.1-0.5-0.2-0.7-0.3c-0.2-0.1-0.5-0.2-0.7-0.3c-0.1,0-0.1-0.1-0.2-0.1
					l0,0c-0.1,0-0.2-0.1-0.3-0.2c-0.3-0.1-0.6-0.3-0.9-0.4c-0.1-0.1-0.4-0.3-0.8-0.6c0,0,0,0-0.1-0.1c-0.2-0.2-0.5-0.4-0.7-0.6
					s-0.4-0.4-0.5-0.5l0,0c0.3,0.7,0.7,1.3,1.1,1.8C173.3,112.6,173.5,112.9,173.8,113.2z"/>
				<path class="st1" d="M174.6,122.3c-0.2,0-0.4-0.1-0.6-0.1c0.4,1.8,1.2,3.5,2.1,4.5c-0.5-0.1-0.9-0.4-1.3-0.6
					c0.4,0.4,0.9,0.6,1.4,0.8c0.6,0.2,1.1,0.2,1.7,0.3c0-0.2-0.1-0.4-0.1-0.6c-0.2-1.2-0.1-2.5,0.2-3.7v-0.1c0-0.1,0.1-0.2,0.1-0.3
					c-0.2,0-0.4-0.1-0.6-0.1c-0.1,0-0.1,0-0.2,0c-0.2,0-0.5,0-0.7,0C176,122.4,175.3,122.4,174.6,122.3z"/>
				<path class="st1" d="M173.8,125.4c0-0.2,0-0.4,0-0.5c0-0.2-0.3-0.2-0.3,0c0,0.1,0,0.2,0,0.3l0,0l0,0v0.1
					C173.6,125.3,173.7,125.4,173.8,125.4z"/>
				<path class="st1" d="M177.8,121.7c0.1,0.2,0.3,0.4,0.4,0.6c0.1-0.3,0.3-0.7,0.4-1c0.1-0.1,0.1-0.2,0.2-0.4c-0.1,0-0.2,0-0.3-0.1
					c-0.1,0-0.2,0-0.3-0.1c-0.3-0.1-0.7-0.1-1-0.1c-0.1,0-0.2,0-0.2,0l0,0c0.2,0.2,0.3,0.3,0.5,0.5
					C177.6,121.5,177.7,121.6,177.8,121.7z"/>
				<path class="st1" d="M175.4,134c1.1,0.6,1.9,0.8,2.8,0.7c0.4,0,0.9-0.1,1.4-0.2c0-0.2-0.1-0.3-0.1-0.5c-0.1-0.5-0.1-1.1,0-1.7
					c0-0.6,0.1-1.1,0.3-1.7c0-0.2,0.1-0.4,0.1-0.5s0-0.1,0.1-0.2c-0.1,0-0.2,0-0.3,0c-0.2,0-0.3,0-0.5,0c-1.6,0.1-3.1,0-4.3-0.5
					c-0.1,0-0.1,0-0.2-0.1c0.1,0.6,0.2,1.1,0.4,1.7c-0.3-0.3-0.5-0.6-0.7-1c0.1-0.1,0-0.4-0.2-0.3c0.3,1.2,0.6,2.5,0.8,3.9
					C175.1,133.9,175.3,133.9,175.4,134z"/>
				<path class="st1" d="M187.1,127.2c0-0.1,0-0.2,0-0.2c-0.4,0.3-0.9,0.5-1.3,0.7c-0.7,0.4-1.4,0.7-1.8,1.1c0,0,0,0.1-0.1,0.1
					l-0.1,0.1c-0.3,0.4-0.5,0.8-0.8,1.2c0,0.1,0,0.1-0.1,0.2c0,0.1-0.1,0.2-0.1,0.2c-0.4,0.9-0.6,2-0.5,3v0.1c0,0.1,0,0.1,0,0.2
					c0,0.2,0.1,0.4,0.1,0.5c0.2,0,0.4,0.1,0.6,0.2c0.1,0,0.2,0.1,0.3,0.1l0.1-0.1c0.3-0.2,0.6-0.4,0.9-0.6c0.1,0,0.1-0.1,0.2-0.1
					c0-0.8,0.1-1.6,0.3-2.5l0.2-0.4c0-0.2-0.1-0.4,0-0.6c0-0.4,0.2-0.8,0.4-1.1c0.1-0.1,0.2-0.3,0.4-0.4c0,0,0,0,0.1-0.1
					c0.4-0.3,0.8-0.3,1.2-0.3C187.1,128.1,187.1,127.6,187.1,127.2z"/>
				<path class="st1" d="M178.3,140.9c1.1,1.5,2,2.2,2.6,2.6c0.5,0.4,0.9,0.5,1.1,0.5l0,0c0.1,0,0.2,0,0.3,0
					c-0.1-0.1-0.2-0.1-0.3-0.2c0,0,0,0-0.1-0.1c-1.9-1.7-1.2-4.6-0.8-5.8c0-0.1,0.1-0.1,0.1-0.2v-0.1c0-0.1,0.1-0.2,0.1-0.3v-0.1
					c-0.1,0-0.1,0-0.2,0H181c-0.2,0-0.4,0.1-0.6,0.1c-0.1,0-0.2,0-0.3,0.1c-0.8,0.2-1.6,0.3-2.3,0.3c-0.3,0-0.7,0-1-0.1
					c0.1,0.2,0.1,0.4,0.1,0.6C177.3,139.2,177.7,140.2,178.3,140.9z"/>
				<path class="st1" d="M185,142.1c0.2,0.1,0.4,0.1,0.6,0.2c0.3,0,0.5,0,0.8-0.1c-0.6-1.1-1-2.3-1.3-3.5c-0.1-0.3-0.2-0.7-0.2-1
					c0-0.1,0-0.2,0-0.3c-0.1,0.1-0.1,0.1-0.2,0.2c-0.1,0.1-0.1,0.1-0.2,0.2c-0.2,0.2-0.3,0.5-0.4,0.7c0,0.1-0.1,0.2-0.1,0.3
					c-0.1,0.4-0.2,0.8-0.2,1.2c0,0.2,0,0.4,0,0.6c0,0.4,0.1,0.7,0.3,0.9s0.3,0.2,0.5,0.4C184.7,142,184.8,142.1,185,142.1z"/>
				<path class="st1" d="M199.5,106.2C199.5,106.2,199.6,106.2,199.5,106.2c0.3,0.1,0.5,0.2,0.7,0.3c0.1,0,0.1,0.1,0.2,0.1
					c0.1-0.4,0.3-0.7,0.4-1.1c0.1-0.3,0.3-0.6,0.4-0.9c0.2-0.3,0.4-0.6,0.6-0.9c0.3-0.4,0.6-0.8,1-1.2c0.2-0.2,0.5-0.5,0.7-0.7
					c0-0.1,0-0.3,0-0.4l0,0c0.1,0.1,0.1,0.2,0.2,0.3c0.1-0.1,0.1-0.1,0.2-0.2c0.3-0.2,0.7-0.5,1-0.7c-0.2-0.3-0.4-0.6-0.6-0.8
					c-0.5-0.6-1-1.1-1.4-1.7l0,0c-0.3-0.4-0.6-0.7-0.8-1.1c-0.1-0.1-0.2-0.5-0.4-0.8c-0.4-0.9-0.9-2.2-0.7-2.5c0,0-0.1,0.1-0.1,0.2
					l0,0c0,1.4,0.2,2.8,0.5,4.2c0.1,0.3,0.1,0.6,0.2,0.8c-0.1-0.1-0.1-0.2-0.2-0.3c-0.2-0.3-0.4-0.6-0.6-0.9c0-0.1-0.1-0.1-0.1-0.2
					c-1.1,2.5-1.8,5.3-1.4,7.4C199.2,105.6,199.3,105.9,199.5,106.2z"/>
				<path class="st1" d="M209.8,102c-0.6,0.3-1.1,0.5-1.7,0.8c-0.3,0.1-0.5,0.2-0.8,0.3c-0.1,0-0.2,0.1-0.3,0.1
					c-0.3,0.2-0.7,0.4-1.1,0.6c-0.1,0.1-0.3,0.2-0.4,0.3c-0.4,0.3-0.8,0.7-1.2,1.2c0,0,0,0.1-0.1,0.1c-0.2,0.2-0.3,0.5-0.5,0.7
					c-0.1,0.2-0.2,0.4-0.3,0.6l0,0c-0.2,0.4-0.3,0.8-0.5,1.2c-0.3-0.1-0.5-0.3-0.7-0.5s-0.4-0.4-0.5-0.7l0,0l0,0
					c-0.1,0.2-0.1,0.4-0.2,0.6c0.1,0.1,0.2,0.1,0.3,0.2c0.4,0.2,0.7,0.5,1,0.8c0.1,0.1,0.2,0.2,0.4,0.3c0.1,0.1,0.2,0.2,0.2,0.3
					c0.8-0.2,1.5-0.3,2.2-0.3c0.3,0,0.7,0,1,0s0.6,0,0.9,0c0.8,0,1.5-0.1,2.2-0.4c1.9-2.8,2.5-6.6,2-9.7c0-0.3-0.2-0.3-0.3,0l0,0
					c0,2-0.5,3.9-1.5,5.8c0.2-0.9,0.4-1.7,0.5-2.6C210.3,101.8,210.1,101.9,209.8,102z"/>
				<path class="st1" d="M195.8,114.2c0.6,0.6,1.3,1.1,2,1.4c0.4-1.8,1.4-3.5,2.6-4.8c0.2-0.2,0.3-0.3,0.5-0.4l0,0
					c0.2-0.2,0.4-0.4,0.7-0.5l0,0c0.2-0.1,0.4-0.2,0.6-0.3c-0.2-0.2-0.4-0.3-0.6-0.5c0,0-0.1,0-0.1-0.1l0,0
					c-0.3-0.2-0.7-0.5-1.1-0.7c-0.1-0.1-0.2-0.1-0.4-0.2c-0.5-0.3-1.1-0.5-1.5-0.7c-0.9-0.5-1.8-1.3-2.4-3c-0.1-0.2-0.2-0.3-0.2-0.6
					c0,0,0,0.1-0.1,0.2l0,0c0,1.2,0.2,2.4,0.5,3.5c-0.1-0.1-0.2-0.1-0.2-0.2c-0.6,2.2-0.9,4.6-0.5,6.4c-0.7-0.7-1.2-1.8-1.6-2.7l0,0
					c0,0.1,0,0.2,0,0.3c0,0,0,0,0,0.1c0.2,0.2,0.4,0.4,0.5,0.7C194.6,112.9,195.1,113.6,195.8,114.2z"/>
				<path class="st1" d="M208.9,111.4c-0.7,0.1-1.4,0.1-2,0.1c-0.5,0-1.1,0-1.6,0.1c-0.1,0-0.2,0-0.2,0c-0.1,0-0.3,0-0.4,0.1
					c-0.3,0.1-0.7,0.2-1,0.3c0,0,0,0-0.1,0c-0.3,0.2-0.7,0.4-1,0.8c-0.1,0.1-0.2,0.2-0.2,0.3c-0.7,0.8-1.3,1.9-1.6,2.9
					c-0.5-0.4-0.8-0.9-0.9-1.8l0,0c-0.1,0.1-0.1,0.2-0.1,0.3c-0.1,0.2-0.1,0.3-0.2,0.5c-0.1,0.2-0.1,0.4-0.2,0.6
					c0,0.1-0.1,0.3-0.1,0.4s0,0.2,0,0.2l0,0c0.3,0.2,0.7,0.4,1.1,0.6c0.1,0.1,0.2,0.1,0.3,0.2c0.3,0.2,0.5,0.4,0.8,0.7
					c0.1,0,0.3-0.1,0.4-0.2c0.1,0,0.2,0,0.3-0.1c0.8-0.2,1.5-0.3,2.3-0.3c0.4,0,0.8,0,1.2,0c0.2,0,0.3,0,0.5,0c1.1,0,2,0,2.7-0.5
					c1.8-2.1,2.9-4.8,3-7.5l0,0c0-0.3-0.3-0.3-0.5-0.2l0,0l0,0c-0.4,1.1-0.9,2.2-1.6,3.2c0.1-0.3,0.2-0.7,0.3-1
					C209.7,111.3,209.3,111.4,208.9,111.4z"/>
				<path class="st1" d="M193.6,123.6c0.1,0,0.2,0.1,0.4,0.1c0.1,0,0.2,0.1,0.3,0.1c0,0,0.1,0,0.1,0.1c0.1,0.1,0.3,0.1,0.5,0.2
					c0.1,0.1,0.3,0.1,0.4,0.2v-0.1c0-0.1,0-0.1,0.1-0.2c0.3-0.7,0.6-1.3,1-2c0.5-0.8,1.1-1.5,1.8-2.1c0.1-0.1,0.2-0.2,0.3-0.2
					c0.1-0.1,0.2-0.2,0.3-0.2c0.3-0.2,0.6-0.5,0.9-0.7c0.1-0.1,0.2-0.2,0.4-0.2c0,0,0,0-0.1,0c-0.2-0.2-0.4-0.3-0.7-0.5
					c-0.4-0.2-0.8-0.5-1.3-0.6c-0.1,0-0.2-0.1-0.4-0.2s-0.3-0.1-0.5-0.2c0,0-0.1,0-0.1-0.1c-0.2-0.1-0.5-0.2-0.7-0.4
					c-0.1-0.1-0.2-0.1-0.3-0.2c-0.2-0.1-0.3-0.2-0.5-0.3c-0.1-0.1-0.2-0.2-0.4-0.3c-0.1-0.1-0.2-0.2-0.3-0.3
					c-0.1-0.1-0.3-0.3-0.4-0.4l0,0l0,0c-0.1-0.1-0.1-0.1-0.2-0.2c-0.1-0.2-0.3-0.3-0.4-0.5c0-0.1-0.1-0.1-0.1-0.2
					c-0.1-0.2-0.2-0.4-0.3-0.6c0-0.1-0.1-0.1-0.1-0.2c-0.1-0.2-0.2-0.4-0.2-0.6c0-0.1-0.1-0.1-0.1-0.2c0,1.2,0.2,2.5,0.5,3.7
					c-0.1-0.1-0.2-0.2-0.3-0.3c-0.1-0.2-0.3-0.3-0.4-0.5c-0.9,2.2-1.1,4.8-0.3,6.6C192.8,122.7,193.1,123.2,193.6,123.6z"/>
				<path class="st1" d="M199.5,120.7c-1.2,1-2.2,2.4-2.8,3.8c-0.1,0.2-0.1,0.3-0.1,0.5v0.1c0.5,0.4,0.9,0.8,1.3,1.3l0,0
					c0.1,0.1,0.2,0.3,0.3,0.4c0.9-0.3,1.9-0.4,2.9-0.5c0.1,0,0.2,0,0.3,0c0.5,0,1,0,1.6,0.1c0.4,0,0.8,0.1,1.2,0.1
					c1.1,0,2.1,0,2.5-0.6c0.3-0.3,0.5-0.5,0.8-0.6c1.5-2,2.5-4.6,2.6-7.1c0-0.1,0-0.1-0.1-0.2l0,0l0,0c-0.4,2.1-1.5,4.6-3.5,6
					c0.8-1.2,1.4-2.5,1.7-3.9c-0.5,0.1-1,0.2-1.5,0.2s-1,0-1.5,0c-0.3,0-0.5,0-0.8,0c-0.7,0-1.4,0-1.9,0.2l0,0
					c-0.3,0.1-0.6,0.3-0.9,0.4c0.1-0.3,0.1-0.5,0.2-0.8c0.1-0.3,0.2-0.6,0.3-0.9l0,0v-0.1l0,0H202l0,0c-0.5,0.2-0.9,0.4-1.4,0.6
					c0,0,0,0-0.1,0s-0.1,0.1-0.2,0.1c-0.3,0.2-0.7,0.4-1,0.7C199.6,120.6,199.6,120.7,199.5,120.7z"/>
				<path class="st1" d="M188.9,140.7c0.2,0.4,0.4,0.8,0.6,1.1c0,0.1,0.1,0.1,0.1,0.2c0.3,0.4,0.6,0.8,1,1.1l0.1,0.1
					c0.3,0.3,0.6,0.5,1,0.6c0.3,0.2,0.6,0.3,1,0.4c0.3,0.1,0.5,0.1,0.8,0.1s0.7,0,1-0.1c0.2-0.1,0.4-0.1,0.6-0.2
					c0.2-0.1,0.3-0.2,0.4-0.3c0.3-0.3,0.4-0.5,0.5-0.7c0.1-0.3,0.1-0.9-0.4-2c-0.1-0.3-0.3-0.6-0.5-0.9c-0.2,0-0.3-0.1-0.5-0.1
					c-0.4-0.1-0.7-0.3-0.9-0.6l-0.1-0.1c0.1-0.1,0.1-0.2,0.2-0.4c0-0.1,0.1-0.2,0.1-0.3s0.1-0.2,0.1-0.3c0.1-0.4,0.1-0.7,0.1-1.1
					l0,0c0,0.1,0,0.1,0.1,0.2v0.1c0.1,0.2,0.2,0.3,0.3,0.5c0,0,0,0.1,0.1,0.1c0.1,0.1,0.2,0.1,0.2,0.2c0,0,0.1,0,0.1,0.1
					c0.1,0,0.1,0.1,0.2,0.1h0.1c0.2,0.1,0.4,0.2,0.6,0.2l0,0h0.1c0.1,0,0.1,0,0.2,0c0.2,0,0.5,0,0.8,0h0.1c0.2,0,0.5-0.1,0.8-0.1
					c0.2,0,0.4,0,0.6-0.1c0.6-0.2,1.3-0.4,1.9-0.6c0.2-0.1,0.4-0.2,0.6-0.3c0.4-0.2,0.8-0.4,1.2-0.6c0.2-0.1,0.4-0.3,0.6-0.4
					c0.3-0.2,0.7-0.5,1-0.7c0.2-0.2,0.4-0.3,0.6-0.5c0.3-0.3,0.6-0.5,0.8-0.8c0.2-0.2,0.4-0.4,0.5-0.6c0.2-0.3,0.5-0.6,0.7-0.9
					c0.2-0.2,0.3-0.4,0.4-0.7c0.2-0.3,0.4-0.7,0.5-1c0.1-0.2,0.2-0.5,0.3-0.7c0.1-0.4,0.3-0.7,0.4-1.1c0.1-0.2,0.1-0.4,0.2-0.7v-0.1
					l0,0c-0.8,1.5-1.8,2.7-3.2,3.6c0.7-0.9,1.2-2,1.6-3c-0.4,0.1-0.9,0.1-1.4,0.1c-0.8,0-1.5,0-2.3-0.1c-0.5,0-1-0.1-1.4-0.1
					c0,0,0,0-0.1,0c-0.6,0-1.3,0.1-2,0.3c-0.2,0.1-0.5,0.2-0.7,0.3c0-0.3,0.1-0.6,0.2-0.9c0.1-0.2,0.1-0.4,0.2-0.6
					c0-0.1,0.1-0.2,0.1-0.3l0,0l0,0c-0.1,0-0.1,0-0.2,0.1c0,0,0,0-0.1,0c-0.4,0.1-0.7,0.2-1,0.4h-0.1c-0.1,0-0.2,0.1-0.3,0.1l0,0
					c-0.4,0.2-0.7,0.5-1.1,0.8c0,0-0.1,0.1-0.2,0.1l0,0c-0.1,0.1-0.1,0.1-0.2,0.2c-0.1,0.1-0.3,0.2-0.4,0.4l-0.1,0.1
					c-0.1,0.1-0.3,0.3-0.4,0.4l-0.1,0.1l0,0l0,0c-0.5,0.9-0.9,1.9-1.2,2.9c-0.1,0.4-0.3,0.8-0.4,1.3c-0.1-0.2-0.2-0.4-0.3-0.6
					c0-0.1-0.1-0.1-0.1-0.2c-0.1-0.3-0.3-0.6-0.5-0.9c-0.1-0.2-0.2-0.3-0.3-0.5s-0.2-0.4-0.3-0.6l0,0c0-0.1-0.1-0.2-0.1-0.2
					c0.1,0.1,0.1,0.1,0.2,0.2c0-0.1,0.1-0.1,0.1-0.1c0.1-0.2,0.3-0.5,0.4-0.7c0.4-0.5,0.8-1,1.2-1.4c0.2-0.2,0.4-0.4,0.6-0.6
					c0.1-0.1,0.2-0.2,0.3-0.3l0.3-0.3l0.1-0.1c0.1-0.1,0.2-0.1,0.2-0.2l0.1-0.1c-0.1-0.1-0.2-0.2-0.3-0.3l-0.1-0.1l-0.1-0.1
					c-0.2-0.1-0.3-0.3-0.4-0.4c-0.1-0.1-0.2-0.1-0.3-0.1c-0.3-0.2-0.6-0.3-0.9-0.4c-0.1,0-0.2-0.1-0.2-0.1c-0.4-0.2-0.9-0.4-1.4-0.6
					c-0.2-0.1-0.3-0.2-0.5-0.3c0,0,0,0-0.1,0c-0.1-0.1-0.1-0.3-0.2-0.4c-0.3-0.7-0.4-1.4-0.6-2.1l-0.1-0.1l-0.1-0.1
					c-0.1-0.1-0.1-0.1-0.2-0.2c0-0.1-0.1-0.1-0.1-0.2s-0.1-0.1-0.1-0.2l-0.1-0.1c0-0.1,0-0.2,0-0.2c-0.1,0.2-0.1,0.3-0.1,0.5
					c0,0.1-0.1,0.3-0.1,0.4c-0.2,0.8-0.4,1.5-0.6,2.4c-0.3,1.3-0.4,2.7-0.2,4c0.2,0.1,0.4,0.3,0.6,0.4c0,0.2,0,0.5,0,0.7v0.1
					c0,0.3,0,0.6-0.1,0.9c0,0.1,0,0.3,0,0.4c0,0.4,0,0.9,0,1.3c0,0.1,0,0.1,0,0.2l-0.1-0.1c-0.2-0.2-0.4-0.3-0.6-0.5
					c-0.2-0.1-0.3-0.3-0.5-0.4c0,0.2,0,0.3-0.1,0.5c0,0.3-0.1,0.6-0.1,0.9c0,0.1,0,0.2,0,0.2c0,0.5,0,1.1,0,1.6c0,0.1,0,0.2,0,0.3
					C187.8,137.6,188.2,139.1,188.9,140.7z"/>
				<path class="st1" d="M104.1,186.3c-1.7,0-3.1,0.2-4.2,0.7c-0.6,0.2-1.1,0.5-1.6,0.8c-1,0.8-1.6,1.8-1.9,3.2
					c-0.2,0.8-0.3,1.7-0.3,2.8c0,1.2,0.1,2.5,0.2,3.8c0.1,1.4,0.3,3,0.5,4.5c0.6,4.4,1.5,9.2,2.8,13.7c0.2,0.8,0.5,1.6,0.7,2.5
					c0.7,2.3,1.5,4.6,2.3,6.7c0.1,0.2,0.2,0.3,0.3,0.5c0.1,0.1,0.2,0.3,0.3,0.4c0.3,0.4,0.6,0.7,0.9,1.1l0,0c2,2.3,4.8,4.8,7.6,7.1
					c0.7,0.6,1.5,1.2,2.2,1.7l0.1,0.1c0.3,0.2,0.6,0.5,0.9,0.7c0.2,0.2,0.4,0.3,0.6,0.4c0.2,0.1,0.3,0.2,0.5,0.4c0,0,0.1,0,0.1,0.1
					l0,0c0.5,0.3,0.9,0.7,1.3,1c0.1,0,0.1,0.1,0.2,0.1c0.9,0.6,1.6,1.1,2.2,1.6c0,0,0.1,0,0.1,0.1c0.3,0.2,0.6,0.4,0.8,0.5
					c0.2,0.1,0.4,0.3,0.5,0.4c0.1,0.1,0.2,0.1,0.3,0.2l0,0l0,0c0.3,0.2,0.7,0.5,1.1,0.7c3.9,2.5,11.5,6.4,23.9,9.7
					c-2.8-11.8-5.4-24.2-6.4-36.6c-0.4-4.3-0.5-8.4-0.6-12.4c-5.6-6.1-13-10.8-23.8-14.2c-0.2-0.1-0.3-0.1-0.5-0.2
					c-0.6-0.2-1.2-0.4-1.9-0.6c-1.4-0.4-2.6-0.7-3.8-0.9C107.7,186.5,105.7,186.3,104.1,186.3z M111.8,216.2c0.5,1.3,1.1,2.6,1.6,4
					c0.6,1.5-0.1,3.1-1.6,3.8l0,0c-0.5,0.2-1,0.3-1.5,0.3c-1.1,0-2.2-0.6-2.7-1.5c-3.7-6.3-5.6-13.8-6.7-20.7
					c-0.3-1.6-0.5-3.1-0.7-4.5c-0.1-0.5-0.1-1.1-0.2-1.6c-0.1-1.1,0.6-2.1,1.7-2.4c1.2-0.3,2.4,0.4,2.7,1.5c0.2,0.8,0.5,1.6,0.7,2.4
					c0.5,1.5,0.9,3,1.4,4.5c0.6,1.9,1.2,3.8,1.9,5.7c0.8,2.2,1.7,4.4,2.6,6.5C111.3,214.9,111.6,215.6,111.8,216.2z"/>
				<path class="st1" d="M143,206.5c0.1,2.7,0.2,5.5,0.5,8.4c1,12.8,3.8,25.5,6.7,37.7c3.1,0.7,6.4,1.4,10.1,2
					c0.5,0.1,1,0.2,1.5,0.2c0.4,0.1,0.8,0.1,1.2,0.2c0.1,0,0.2,0,0.2,0c4.5,0.7,9.3,1.3,14.6,1.7c0.3,0,0.6,0,0.8,0.1
					c0.1-1.6,0.3-3.1,0.4-4.5c0.2-1.7,0.5-3.5,0.9-5.2c0-0.2,0.1-0.4,0.1-0.6c0.3-1.5,0.7-3.1,1.1-4.6c0-0.1,0-0.2,0.1-0.2
					c0,0,0,0,0-0.1c3.6-13.7,10.4-27,19.8-38.8c-1.3-4.1-2.8-8.1-4.3-11.9c-0.8-2-1.9-4.1-3.2-6.3c-0.3-0.5-0.6-1-0.9-1.5
					c-0.3-0.5-0.6-0.9-0.9-1.4c-0.2-0.4-0.5-0.7-0.7-1.1c-0.3-0.4-0.6-0.9-0.9-1.3c0-0.1-0.1-0.1-0.1-0.2c-0.3-0.3-0.5-0.7-0.8-1
					c-0.1-0.2-0.3-0.4-0.4-0.5c-0.4-0.5-0.8-1-1.1-1.4s-0.6-0.7-0.9-1.1c-0.4-0.5-0.8-0.9-1.2-1.3c-0.4-0.4-0.7-0.8-1.1-1.2
					c-2.2-2.3-4.5-4.5-6.9-6.3c-0.4-0.3-0.8-0.6-1.2-0.9c-0.4-0.3-0.8-0.5-1.2-0.8c-0.3-0.2-0.6-0.4-0.9-0.6
					c-0.4-0.2-0.8-0.5-1.2-0.7c-0.3-0.2-0.6-0.4-0.9-0.5c-0.1,0-0.1-0.1-0.2-0.1c-3.3-1.8-8.4-4.5-13-4.5c-0.5,0-1.1,0-1.6,0.1
					c-5,0.8-7.4,5.8-9.3,11.2c-3.4,9.6-5.1,20.2-5.1,32.5c0,0.8,0,1.5,0,2.3C142.9,204.9,142.9,205.7,143,206.5z M151.2,165.8
					c1.6-3,3.8-4.5,6.1-4.5c5.6,0.1,10.8,9.2,12.8,13.2c3.1,6.2,7.9,21.7,8.2,35.3c0.2,9.7-1.8,16.6-6.1,20.4
					c-2.6,2.3-5.9,3.5-9.9,3.5c-1.1,0-2.2-0.1-3.4-0.3c0,0,0,0-0.1,0c-0.6-0.1-1.1-0.2-1.6-0.4c-0.6-0.2-1.2-0.3-1.8-0.5
					c-8.9-3.4-10.2-14-10.3-22.9c0-0.9,0-1.8,0-2.7c0-0.5,0-1.1,0-1.6c0-0.3,0-0.6,0-0.9c0-0.7,0-1.3,0-2
					C144.9,189.9,145.3,176.7,151.2,165.8z"/>
				<path class="st1" d="M148,205.3c0,1.1,0,2.3,0,3.5c0,1,0,2,0.1,3c0,1.2,0.1,2.4,0.2,3.6c0.5,5.2,1.9,10.2,5.6,12.9
					c0.6,0.5,1.3,0.8,2,1.2c0.6,0.3,1.2,0.5,1.8,0.6c0.5,0.1,1,0.3,1.5,0.3c4.7,0.7,8.4-0.2,11-2.5c3.6-3.2,5.4-9.5,5.1-18.1
					c-0.3-12.5-4.8-27.8-7.9-34c-2.9-5.7-7.1-11.5-10.2-11.5l0,0c-1.2,0-2.4,1-3.4,3c-5.5,10.2-5.9,23-5.8,35.2
					C148,203.3,148,204.3,148,205.3z"/>
				<path class="st1" d="M203.3,204.8c-0.4,0.5-0.7,1-1.1,1.5c-8.4,10.9-14.6,23.1-17.9,35.7c2.9,6.4,10.5,8.6,15.8,9.3
					c0.5,0.1,1.1,0.1,1.6,0.2c0.6,0.1,1.1,0.1,1.6,0.1c0.2,0,0.4,0,0.5,0c12.1,0.5,23.4-1.9,31.7-6.7c4.9-2.8,8.7-6.4,11.8-10.3
					c0.3-0.4,0.7-0.9,1-1.3c0.3-0.4,0.6-0.9,0.9-1.3c3.7-5.5,6.1-11.5,7.8-16.8c2.8-8.3,4.3-17.7,4.3-26.5c0-6.2,0-11.5-3.8-16.1
					c-0.2-0.1-0.5-0.1-0.8-0.2c-0.6-0.2-1.2-0.3-1.8-0.4c-0.5-0.1-0.9-0.2-1.4-0.2c-0.1,0-0.3,0-0.4,0c-0.3,0-0.5,0-0.8,0
					c-4.9,0-10,2.1-14.8,4.4c-5.4,2.6-10.8,6.1-16.4,10.6c-6.2,5-11.9,10.7-16.8,16.7C204,203.9,203.6,204.4,203.3,204.8z
					 M218.4,191.2c8.3-6.6,18.9-11.2,26.3-14c1.7-0.7,3.2-1,4.6-1.2h0.1c0.7-0.1,1.3,0,1.8,0.1c0.6,0.1,1.1,0.3,1.5,0.6
					c0.8,0.5,1.3,1.3,1.6,1.9c2.7,6-5.1,23.4-11.8,35.5c-0.4,0.7-0.8,1.4-1.1,2c-0.4,0.6-0.7,1.2-1,1.8c-2.4,4.1-4.5,7.1-5.5,8.1
					c-5.1,4.8-11,7.4-16.7,7.4c-0.7,0-1.3,0-2-0.1c-2-0.2-3.9-0.8-5.6-1.7c-0.5-0.3-1-0.6-1.5-0.9c-0.5-0.4-1-0.7-1.5-1.2
					c-1.9-1.7-3.3-3.7-4-6.1c-1.3-4.4-1.1-8.6,0.1-12.5c0.3-0.8,0.5-1.6,0.9-2.4c0.3-0.7,0.6-1.4,1-2.1
					C208.9,199.5,214.9,194,218.4,191.2z"/>
				<path class="st1" d="M247.6,241.7c0.5-0.4,1.3-0.3,1.8,0.1c0.3,0.2,0.5,0.4,0.8,0.6c0.5,0.3,0.9,0.5,1.2,0.6l1,0.1
					c0.2-0.3,0.3-0.6,0.4-0.9c0.3-0.5,0.5-0.9,0.8-1.4c0.2-0.5,0.5-1,0.7-1.5c6.8-14.2,11-32.2,11.2-42.4v-1c0-0.5,0-1.1,0-1.6
					c0-0.2,0-0.3,0-0.5c0-0.3,0-0.6,0-1s0-0.9,0-1.3c0-0.3,0-0.6,0-1s0-0.9,0-1.3c0-0.3,0-0.7,0-1c0-0.4,0-0.8-0.1-1.2
					c0-0.3,0-0.7-0.1-1c0-0.4-0.1-0.7-0.1-1.1c0-0.4-0.1-0.7-0.1-1s-0.1-0.6-0.2-0.9c-0.3-1.6-0.7-3.2-1.3-4.5l0,0
					c-0.1-0.1-0.1-0.2-0.1-0.4v0.1c0.8,3.3,0.8,6.8,0.8,10.5c0,9-1.6,18.8-4.5,27.4c-1.9,5.8-4.6,12.5-8.9,18.6
					c-0.3,0.4-0.6,0.8-0.9,1.3c-0.3,0.4-0.6,0.8-1,1.2c-3.1,3.9-7,7.4-12,10.3c-8.8,5.1-20.6,7.6-33.3,7.1c-0.7,0-1.3-0.1-1.9-0.2
					c-0.5,0-1.1-0.1-1.6-0.1c-0.5-0.1-1.1-0.2-1.6-0.3c-6.9-1.1-12.2-3.9-15.3-8l0,0c-0.1,0.3-0.1,0.7-0.2,1
					c-0.1,0.6-0.2,1.1-0.3,1.7c-0.2,1.3-0.5,2.6-0.7,4s-0.4,2.8-0.4,4.3l0,0c0.4,0,0.8,0.1,1.2,0.1c0.7,0,1.4,0.1,2.1,0.1
					c0.9,0,1.8,0.1,2.7,0.1c3,0.1,5.9,0.1,8.7,0.1c0.6,0,1.3,0,1.9,0c0.6,0,1.2,0,1.8,0c11.8-0.3,21.8-1.5,29.7-2.7
					C235.3,250.3,241.5,245.8,247.6,241.7z"/>
				<path class="st1" d="M206.7,223.9c0.5,1,1.1,2,1.9,2.8c0.5,0.5,1,1,1.6,1.4c1.7,1.2,3.8,2.1,6,2.3c7.4,0.8,13.4-3.8,16.3-6.5
					c1.1-1,3.7-5.1,6.6-10.3c0.4-0.7,0.8-1.4,1.2-2.1c0.4-0.8,0.9-1.6,1.3-2.4c5.8-11.1,11.7-24.8,9.8-29.1
					c-0.1-0.2-0.3-0.5-0.7-0.7c-0.2-0.1-0.4-0.1-0.8-0.1c-0.1,0-0.3,0-0.4,0l0,0c-0.2,0-0.4,0.1-0.6,0.1c-0.6,0.1-1.3,0.3-2.1,0.5
					c-0.4,0.1-0.7,0.2-1.1,0.4c-7.2,2.6-17.4,7.1-25.4,13.5c-3.8,3-10.9,9.5-13.7,17.5c-0.3,0.9-0.6,1.9-0.8,2.9
					c-0.3,1.5-0.4,2.9-0.3,4.5c0.1,1.4,0.3,2.8,0.7,4.2C206.3,223.1,206.5,223.5,206.7,223.9z"/>
				<path class="st1" d="M102.3,267.2c0.5-0.4,0.9-0.8,1.4-1.1c0.4-0.3,0.8-0.7,1.3-1c0.2-0.2,0.4-0.3,0.6-0.5l0,0
					c0.4-0.3,0.8-0.6,1.2-0.9l0.1-0.1c0,0,0,0,0.1-0.1c0.1-0.5,0.2-1,0.4-1.5l0,0c0.2-0.8,0.5-1.7,0.7-2.7c0.9-3,2.1-6.4,3.7-10l0,0
					c0.2-0.5,0.4-0.9,0.7-1.4c0.1-0.1,0.1-0.3,0.2-0.4c-0.3-0.2-0.6-0.4-0.9-0.6c-0.1-0.1-0.2-0.1-0.2-0.2c-1.2-0.8-2.4-1.6-3.7-2.5
					c-5-3.5-9.8-7.5-12.9-12.2c-1.9,2.6-3.8,6-5.4,10.3c-0.4,1-0.8,2.1-1.1,3.3c-0.4,1.2-0.7,2.5-1,3.9c0,0.1-0.8,3,0.8,4.7
					c0.3,0.3,0.8,0.9,1.4,1.5c0.8,1,1.9,2.2,3.2,3.6c1.3,1.3,2.7,2.8,4.3,4.3c1.5,1.3,3,2.6,4.8,3.9
					C102.1,267.4,102.2,267.3,102.3,267.2z"/>
				<path class="st1" d="M115.6,258.6c0.2-0.1,0.3-0.2,0.5-0.2c0.2-0.1,0.4-0.2,0.7-0.3c0.6-0.2,1.1-0.5,1.7-0.7
					c0.5-0.2,1-0.4,1.5-0.6c0.6-0.2,1.1-0.4,1.7-0.6c0.6-0.2,1.2-0.4,1.8-0.6c0.3-0.1,0.6-0.2,1-0.3c-1.1-0.8-2.3-1.7-3.7-2.7
					c-0.2-0.2-0.5-0.4-0.8-0.5c-0.4-0.3-0.9-0.6-1.3-0.9c-0.4-0.3-0.9-0.6-1.3-0.8c-0.2-0.1-0.4-0.3-0.6-0.4
					c-0.2-0.1-0.4-0.2-0.6-0.4c-0.2-0.1-0.3-0.2-0.5-0.3l-0.1-0.1c-0.1-0.1-0.2-0.1-0.3-0.2c-0.2,0.4-0.4,0.7-0.5,1.1
					c-0.2,0.5-0.4,0.9-0.6,1.4c-0.9,2-1.6,4-2.2,5.8c-0.2,0.6-0.4,1.3-0.6,1.9s-0.4,1.3-0.5,1.9c1.4-0.8,2.9-1.6,4.4-2.3
					C115.2,258.8,115.4,258.7,115.6,258.6z"/>
				<path class="st1" d="M210.9,268c-5.4,0.6-13.2,0.8-20.9,0.7c5.3,2.8,10.5,5.9,15.5,9.2l0,0c0.4,0.3,0.9,0.6,1.3,0.9
					c0.1,0.1,0.2,0.1,0.3,0.2l0,0c0.1,0,0.1,0.1,0.2,0.1c0.5,0.3,0.9,0.6,1.4,1l0,0c0.2,0.2,0.4,0.3,0.7,0.5
					c0.4,0.3,0.9,0.6,1.3,0.9c-0.1-0.3-0.1-0.7-0.1-1c-0.1-0.4-0.1-0.7-0.2-1l0,0c0-0.1,0-0.3-0.1-0.4c0,0,0-0.1-0.1-0.1
					c-0.2-0.2-0.3-0.6-0.4-0.9l0,0c-0.1-0.4-0.2-0.9-0.2-1.5l0,0v-0.1c0.2-2.3,2.3-5.4,5.6-8.9C213.8,267.7,212.4,267.8,210.9,268z"
					/>
				<path class="st1" d="M139.2,253.2c0.6,0,1.1,0,1.7,0c-9.3-2.9-15.4-6-19-8.2c-0.5-0.3-0.9-0.6-1.3-0.8c-0.1-0.1-0.3-0.2-0.4-0.3
					c0,0-0.1-0.1-0.3-0.2c0,0,0,0-0.1-0.1c-0.2-0.1-0.4-0.2-0.6-0.4c-0.2-0.1-0.4-0.3-0.7-0.5c0,0,0,0-0.1,0
					c-0.1-0.1-0.3-0.2-0.4-0.3c-0.2-0.1-0.3-0.2-0.5-0.3c-0.1-0.1-0.2-0.2-0.3-0.2c-0.2-0.1-0.3-0.2-0.5-0.3
					c-0.1-0.1-0.2-0.1-0.3-0.2c-0.1,0-0.1-0.1-0.2-0.1c-0.1-0.1-0.2-0.1-0.3-0.2c-0.1,0-0.1-0.1-0.2-0.1c-0.2-0.1-0.4-0.3-0.6-0.4
					c-0.2-0.1-0.4-0.3-0.6-0.4c-0.3-0.2-0.6-0.4-0.9-0.6c-0.2-0.1-0.4-0.3-0.6-0.4c-0.3-0.2-0.7-0.5-1-0.8c-0.1-0.1-0.2-0.1-0.2-0.2
					c-0.1-0.1-0.2-0.2-0.3-0.2c-0.5-0.3-0.9-0.7-1.4-1.1c-0.1-0.1-0.1-0.1-0.2-0.2c-0.5-0.4-1.1-0.9-1.6-1.3
					c-0.1-0.1-0.2-0.2-0.4-0.3c-0.4-0.3-0.8-0.7-1.2-1c-0.2-0.2-0.3-0.3-0.5-0.5c-0.3-0.3-0.7-0.6-1-0.9c-0.1-0.1-0.2-0.1-0.2-0.2
					c-0.1-0.1-0.2-0.2-0.3-0.3c-0.3-0.3-0.6-0.6-0.9-0.9c-0.2-0.2-0.3-0.4-0.5-0.5l0,0c-0.3-0.3-0.6-0.6-0.8-0.9
					c-0.2-0.2-0.3-0.3-0.5-0.5c-0.3-0.3-0.5-0.6-0.8-1c-0.1-0.1-0.2-0.3-0.3-0.4c-0.3-0.5-0.7-0.9-1-1.4l0,0
					c-0.8,0.7-1.9,1.7-3.1,3.2l0,0c1.8,2.9,4.4,5.6,7.3,8.1c0.9,0.8,1.9,1.5,2.8,2.3c1,0.8,2,1.5,3.1,2.2c0.6,0.4,1.2,0.8,1.7,1.2
					c0.7,0.5,1.5,1,2.2,1.5c0.4,0.3,0.8,0.5,1.3,0.8c0.1,0.1,0.2,0.2,0.4,0.2c0.2,0.1,0.3,0.2,0.5,0.3c0.1,0.1,0.3,0.2,0.4,0.3
					c0.2,0.1,0.4,0.2,0.5,0.4c0.4,0.2,0.7,0.4,1,0.7c0.4,0.3,0.9,0.6,1.3,0.8c0.5,0.3,0.9,0.6,1.3,0.9c0.6,0.4,1.1,0.7,1.7,1.1
					c2.2,1.5,4,2.9,5.6,4.2C131.6,253.7,135.3,253.3,139.2,253.2z"/>
				<path class="st1" d="M225.1,258.4c-7.7,1-16.9,1.9-27.5,2.1c-0.7,0-1.3,0-2,0s-1.3,0-2,0c-3.9,0-7.9-0.1-12.1-0.4
					c-0.5,0-1-0.1-1.5-0.1s-1-0.1-1.5-0.1c-0.3,0-0.7,0-1-0.1c-3.5-0.3-6.8-0.6-9.9-1c3.7,1.3,7.3,2.8,10.9,4.3
					c0.4,0.2,0.9,0.4,1.3,0.6c0.5,0.2,0.9,0.4,1.3,0.6c0.9,0.4,1.7,0.8,2.6,1.2c1,0,2,0.1,2.9,0.1c1,0,2,0,2.9,0.1
					c0.9,0,1.7,0,2.6,0c6.9,0,13.6-0.1,18.4-0.7c2.8-0.3,5.3-0.5,7.7-0.6C220.3,262.5,222.6,260.4,225.1,258.4z"/>
				<path class="st1" d="M204.4,97.4c-0.1,0.2-0.1,0.4-0.1,0.6c0.2,0.2,0.3,0.4,0.5,0.6l0.4,0.5l0.1,0.1c0.3,0.4,0.6,0.7,0.8,1.1
					c0.3-0.1,0.6-0.2,0.8-0.4c0.3-0.1,0.5-0.2,0.7-0.3c0.8-0.3,1.5-0.7,2-1.2c0.4-2.1-0.1-4.1-0.3-6.4c0-0.7-0.3-2.7-0.3-2.7
					c-0.1-0.1-0.2-0.1-0.3-0.2l0,0c-0.1,1.6-0.3,3.2-0.6,4.8c-0.1-0.6-0.1-1.2-0.2-1.8c0-0.1,0-0.3-0.1-0.6l0,0
					c-0.1,0.1-0.2,0.2-0.3,0.3c0.1-0.4,0.1-0.7,0.2-1.1c0-0.1-0.1-0.2-0.2-0.1c-0.1,0.1-0.1,0.1-0.1,0.2c-0.9,1-1.8,2-2.5,3.1
					C204.5,94.9,203.5,96.4,204.4,97.4L204.4,97.4z"/>
				<path class="st1" d="M176,111.3c0.1,0,0.2,0,0.3,0c0,0.1,0.1,0.2,0.1,0.4c0.1,0.1,0.3,0.1,0.4,0.2l0.4,0.2h0.1l0.2,0.1
					c0.3,0.1,0.6,0.3,0.8,0.4l0,0c0.2-0.2,0.3-0.4,0.5-0.6c0.1-0.1,0.2-0.2,0.3-0.3c0.2-0.2,0.4-0.5,0.6-0.7
					c0.2-0.2,0.3-0.5,0.4-0.7c0.1-0.2,0.1-0.4,0.1-0.6c-0.1-0.3-0.2-0.5-0.3-0.7c-0.2-0.4-0.4-0.8-0.7-1.2c-0.3-0.5-0.7-1-1.1-1.6
					c-0.2-0.3-0.4-0.6-0.6-0.9c-0.1-0.1-0.1-0.2-0.2-0.4c-0.1-0.2-0.2-0.3-0.4-0.5c-0.3-0.4-0.6-0.9-0.7-1l0,0
					c0.1,0.5,0.2,1,0.4,1.5c0.4,1,0.8,2,1.1,3.1c0.1,0.2,0.1,0.3,0.2,0.5c0-0.1-0.1-0.1-0.1-0.2c-0.2-0.2-0.3-0.5-0.5-0.7
					c-0.2-0.3-0.4-0.6-0.6-0.8c-0.1-0.2-0.3-0.4-0.4-0.6c0,0.1,0,0.2-0.1,0.4c-0.1-0.4-0.1-0.9-0.1-1.3c0-0.1-0.1-0.1-0.1-0.1h-0.1
					c-0.1,0.2-0.1,0.3-0.1,0.5c-0.1,0.4-0.2,0.8-0.3,1.2c-0.1,0.6-0.3,1.2-0.3,1.9v0.1C175,109.4,174.9,111,176,111.3z"/>
				<path class="st1" d="M179.3,115.2c-0.1,0.2-0.3,0.5-0.3,0.7c0,0.1-0.1,0.1-0.1,0.2c-0.1,0.2-0.1,0.4-0.1,0.6
					c0,0.3,0.1,0.6,0.2,0.8c0,0.1,0.1,0.1,0.1,0.2s0,0.1,0,0.2c0,0.5,0,0.9,0.1,1.3c0,0.1,0.1,0.3,0.1,0.4c-0.4-0.1-0.7-0.2-0.9-0.5
					c-0.3-0.4-0.5-0.9-0.6-1.4c0-0.1-0.1-0.3-0.1-0.4c0,0,0,0,0-0.1c0,0.2,0,0.4,0,0.5s0,0.1,0,0.2c0,0.4,0,1,0.1,1.5
					c0.1,0,0.2,0,0.3,0c0.4,0,0.8,0.1,1.2,0.2c0.1,0,0.2,0.1,0.4,0.1h0.1c0.1-0.1,0.2-0.2,0.4-0.3c0,0,0,0,0.1,0
					c0.3-0.2,0.6-0.4,0.9-0.6c0.1-0.1,0.2-0.1,0.3-0.2c0,0,0,0,0.1,0l0.1-0.1c0.1,0,0.1-0.1,0.2-0.1c0.1,0,0.1-0.1,0.2-0.1
					c0.2-0.1,0.3-0.2,0.5-0.3c0,0,0,0,0.1,0c0.6-0.3,1.1-0.7,1.5-1.1c0.1-0.1,0.2-0.2,0.3-0.4l0,0c0-0.1,0-0.1,0-0.2
					c0-0.2,0-0.5,0-0.7c0-0.3,0-0.6,0-0.9c0-0.2-0.1-0.4-0.1-0.6V114c-0.1-0.3-0.1-0.6-0.2-0.8c-0.1-0.2-0.1-0.5-0.2-0.7
					c-0.1-0.3-0.2-0.6-0.3-0.8c-0.1-0.2-0.2-0.4-0.3-0.6c-0.1-0.3-0.2-0.5-0.4-0.8c-0.1-0.2-0.2-0.4-0.3-0.5c0-0.1-0.1-0.1-0.1-0.2
					c-0.1-0.1-0.2-0.3-0.3-0.4c0,0,0,0,0,0.1c0.2,0.5,0.3,1,0.4,1.5c0.4,1.6,0.5,3.2,0.3,4.7c0-0.4-0.1-0.8-0.1-1.2
					c-0.1-0.6-0.3-1.1-0.5-1.6c0-0.1-0.1-0.2-0.1-0.3c-0.1,0.1-0.1,0.2-0.2,0.3c-0.1,0.1-0.1,0.2-0.2,0.3c0,0,0,0-0.1,0.1
					c0-0.1,0-0.2,0-0.3c0-0.1,0-0.2,0-0.3v-0.1c-0.1-0.1-0.1-0.1-0.2,0c0,0.1-0.1,0.2-0.1,0.3c-0.2,0.2-0.4,0.5-0.7,0.8
					c-0.2,0.2-0.3,0.4-0.5,0.6l0,0c-0.2,0.2-0.3,0.4-0.5,0.6C179.6,114.7,179.5,115,179.3,115.2z"/>
				<path class="st1" d="M183,120.6c0,0-0.1,0-0.1,0.1c-0.3,0.2-0.6,0.3-0.8,0.5c0,0-0.1,0-0.1,0.1c-0.1,0.1-0.2,0.1-0.2,0.1
					c-0.1,0.1-0.3,0.2-0.5,0.4c-0.1,0.1-0.2,0.2-0.3,0.3l0,0c-0.3,0.4-0.6,1-0.3,1.5l0,0c0.1,0.1,0.1,0.2,0.2,0.3
					c0,0.1,0,0.2-0.1,0.3c-0.1,0.7-0.1,1.4,0,2c-0.2-0.1-0.3-0.1-0.5-0.3c-0.5-0.4-0.8-1.1-1-1.8l0,0c0,0.1,0,0.1,0,0.2
					c0,0.3,0,0.6,0,0.9c0,0.1,0,0.2,0,0.3c0,0.3,0,0.5,0.1,0.8c0,0.1,0,0.2,0.1,0.4c0,0.1,0.1,0.2,0.1,0.3c0.2,0,0.5,0,0.8,0
					c0.1,0,0.1,0,0.2,0c0.2,0,0.4,0,0.6,0.1c0.1,0,0.1,0,0.2,0.1c0.1,0,0.2,0,0.3,0.1c0.1-0.2,0.3-0.3,0.4-0.5
					c0.2-0.2,0.4-0.4,0.6-0.5c0,0,0.1,0,0.1-0.1c0.3-0.2,0.6-0.4,0.9-0.6c0.2-0.1,0.4-0.2,0.5-0.3c0.2-0.1,0.4-0.2,0.5-0.3
					c0.2-0.1,0.3-0.2,0.5-0.3c0.7-0.4,1.3-0.8,1.6-1.3c0.1-0.2,0.2-0.4,0.4-0.5c0.2-2-0.1-4-0.9-5.8c0-0.1-0.1-0.1-0.1-0.1l0,0
					c0.2,1.6,0.1,3.2-0.4,4.7c0-0.7,0-1.3-0.2-2c-0.1,0.1-0.3,0.2-0.4,0.3c-0.1,0.1-0.2,0.2-0.3,0.2c0.1-0.2,0.1-0.4,0.2-0.6
					c0-0.1-0.1-0.2-0.2-0.1l-0.1,0.1C184.1,120,183.5,120.3,183,120.6L183,120.6z"/>
				<path class="st1" d="M105.6,208.8c-0.3-1-0.7-2-1-2.9c1.1,5.3,2.8,10.7,5.6,15.4c0.3,0.1,0.5,0,0.5-0.1l0,0l0,0
					c-0.7-1.9-1.5-3.9-2.3-5.7C107.4,213.3,106.4,211.1,105.6,208.8z"/>
				<path class="st1" d="M156.9,107.4c0.2,0.1,0.4,0.2,0.6,0.3c0.2,0.1,0.4,0.2,0.5,0.3c0.2-0.3,0.4-0.7,0.6-1l0.2-0.3l0.3-0.3
					c0.2-0.2,0.3-0.4,0.5-0.6c-0.1-0.9-0.5-1.8-0.7-2.5c-0.7-1.6-1.4-2.8-2.2-3.7c0,0.1,0,0.2,0,0.2c0,0.7-0.1,1.4-0.2,2.1
					c0,0.1,0,0.2,0,0.3c-0.4-1.7-0.6-3.6-0.7-5.4l0,0c-0.1,0-0.2,0.1-0.3,0.2c0,0-0.3,2-0.3,2.7c-0.1,2.2-0.5,4.1-0.3,6.1
					C155.2,106.4,155.9,106.9,156.9,107.4z"/>
				<path class="st1" d="M160.2,109.3c0.1,0.1,0.2,0.2,0.3,0.2c0.3,0.3,0.6,0.5,0.8,0.8c0.2,0.2,0.4,0.5,0.6,0.7
					c0.3,0.4,0.6,0.9,0.8,1.4c0.1,0.3,0.3,0.6,0.4,1c0.1,0.2,0.2,0.5,0.2,0.7c0.2-0.1,0.3-0.2,0.5-0.3c0,0,0,0,0.1,0l0,0
					c0.2-0.3,0.3-0.6,0.3-1c0.3-2.1-0.2-4.7-1.1-7.1c-0.1,0.3-0.3,0.5-0.4,0.7c-0.1,0.2-0.3,0.4-0.4,0.6c0.1-0.6,0.3-1.2,0.4-1.8
					c0.2-1.2,0.4-2.3,0.3-3.5l0,0c0-0.1-0.1-0.1-0.1-0.2c0.1,0.2-0.2,1.3-0.6,2.2c-0.2,0.5-0.4,0.9-0.4,1.1
					c-0.2,0.4-0.4,0.8-0.7,1.1l0,0c-0.4,0.6-0.9,1.1-1.3,1.7c-0.2,0.3-0.4,0.5-0.5,0.8C159.6,108.8,159.9,109.1,160.2,109.3z"/>
				<path class="st1" d="M156.9,116.2c0.2,0,0.4,0,0.6,0c0.2,0,0.5,0,0.7,0c0.6,0,1.3,0.1,2,0.3c0.1-0.1,0.1-0.2,0.2-0.3
					c0.1-0.1,0.2-0.2,0.3-0.3c0.3-0.3,0.6-0.6,1-0.8c0.1-0.1,0.2-0.1,0.3-0.2c-0.1-0.2-0.1-0.4-0.2-0.6l0,0l0,0
					c-0.1,0.3-0.3,0.5-0.5,0.7s-0.5,0.4-0.7,0.5c-0.1-0.6-0.3-1.2-0.7-1.9c-0.3-0.7-0.8-1.4-1.4-1.9c-0.1-0.1-0.2-0.2-0.3-0.2
					c-0.3-0.3-0.7-0.5-1.1-0.7c-0.1,0-0.2-0.1-0.3-0.1c-0.2-0.1-0.4-0.2-0.7-0.3c-0.5-0.2-1-0.5-1.5-0.8c-0.1,0-0.2-0.1-0.2-0.1
					c0.1,1.1,0.3,2.3,0.7,3.4l0,0c-1.2-2.2-1.7-4.3-1.7-6.7l0,0c-0.1-0.3-0.2-0.3-0.3,0l0,0c-0.5,3.1,0.1,6.9,1.7,9.7
					C155.4,116.1,156.1,116.2,156.9,116.2z"/>
				<path class="st1" d="M168.9,118.8c0-0.1,0-0.2,0-0.3l0,0c0,0.1-0.1,0.2-0.1,0.4C168.8,118.9,168.8,118.8,168.9,118.8
					L168.9,118.8z"/>
				<path class="st1" d="M163.2,115.9c-0.3,0.2-0.6,0.4-0.9,0.7l0,0c0,0,0,0-0.1,0.1c-0.2,0.1-0.3,0.3-0.5,0.5
					c0.2,0.1,0.3,0.2,0.5,0.3l0,0c0.2,0.2,0.5,0.4,0.7,0.6l0,0c0.2,0.2,0.3,0.3,0.5,0.5c1.1,1.2,1.9,2.9,2.3,4.6
					c0.6-0.4,1.1-0.7,1.5-1.2s0.7-1,0.9-1.5c-0.2,0.4-0.5,0.8-0.8,1c0.4-1.7,0.2-4.1-0.3-6.3c0,0.1-0.1,0.1-0.1,0.1
					c0.3-1.2,0.5-2.4,0.5-3.7l0,0c0,0,0-0.1-0.1-0.1l0,0c-0.6,2.1-1.4,2.9-2.3,3.5c-0.4,0.2-0.8,0.4-1.2,0.7
					C163.5,115.7,163.3,115.8,163.2,115.9z"/>
				<path class="st1" d="M153.5,116.7L153.5,116.7c-0.2-0.1-0.4,0-0.4,0.2c0.1,2.7,1.1,5.4,2.6,7.4c0,0,0.1,0,0.1,0.1
					c0.6,0.5,1.3,0.5,2.4,0.5c0.1,0,0.2,0,0.4,0c0.3,0,0.6,0,0.9,0c0.7,0,1.4,0.1,2.1,0.3c0.1,0,0.3,0.1,0.4,0.1c0,0,0.1,0,0.1,0.1
					c0.2-0.2,0.4-0.4,0.6-0.5c0.1-0.1,0.3-0.3,0.4-0.4c0.3-0.2,0.7-0.4,1-0.6l0,0c0-0.1,0-0.2,0-0.2c0-0.1-0.1-0.3-0.1-0.4
					c0-0.2-0.1-0.4-0.2-0.6c0-0.2-0.1-0.3-0.2-0.5c0-0.1-0.1-0.2-0.1-0.3l0,0c-0.1,0.9-0.4,1.5-0.9,1.9c-0.2-0.9-0.6-1.9-1.1-2.6
					c-0.1-0.2-0.3-0.4-0.4-0.6c-0.3-0.4-0.6-0.6-0.9-0.8c-0.1,0-0.1-0.1-0.2-0.1c-0.3-0.1-0.5-0.2-0.8-0.3c-0.1,0-0.3-0.1-0.4-0.1
					c0,0,0,0-0.1,0c-0.4-0.1-0.9-0.1-1.4-0.1c-0.6,0-1.3-0.1-1.9-0.2c-0.2,0-0.5-0.1-0.7-0.1c0.1,0.5,0.2,0.9,0.4,1.4
					C154.5,119.2,153.9,118,153.5,116.7L153.5,116.7z"/>
				<path class="st1" d="M167.4,123.7c-0.1,0.1-0.3,0.2-0.4,0.3c-0.1,0.1-0.2,0.1-0.2,0.2c-0.2,0.1-0.4,0.3-0.6,0.4
					c0,0-0.1,0-0.1,0.1c-0.1,0-0.2,0.1-0.2,0.1c-0.2,0.1-0.3,0.2-0.5,0.3c-0.4,0.2-0.8,0.4-1.1,0.6c-0.2,0.1-0.4,0.3-0.6,0.5l0,0
					c0.1,0.1,0.2,0.1,0.3,0.2c0.3,0.2,0.6,0.5,0.9,0.7c0.1,0.1,0.2,0.2,0.3,0.3c0.1,0.1,0.1,0.1,0.2,0.2c0.8,0.8,1.5,1.8,2,2.9
					c0.2,0.4,0.4,0.9,0.5,1.3c0,0.1,0,0.1,0,0.2c0.2-0.1,0.3-0.2,0.5-0.2c0,0,0.1,0,0.1-0.1l0,0c0.1-0.1,0.2-0.1,0.3-0.2
					c0.1,0,0.2-0.1,0.3-0.1c0.2-0.2,0.4-0.5,0.5-0.8c0.1-0.2,0.2-0.5,0.3-0.7c0.7-1.8,0.5-4.3-0.2-6.4c0,0.1-0.1,0.1-0.2,0.2
					c-0.1,0.2-0.3,0.3-0.4,0.5c0.3-1.3,0.5-2.6,0.5-3.9c0,0.1,0,0.1-0.1,0.2c-0.1,0.2-0.1,0.4-0.2,0.6c0,0.1-0.1,0.1-0.1,0.2
					c-0.1,0.2-0.2,0.4-0.3,0.6c0,0.1-0.1,0.1-0.1,0.2c-0.1,0.2-0.2,0.4-0.3,0.5s-0.1,0.1-0.2,0.2l0,0l0,0c-0.1,0.1-0.2,0.3-0.4,0.4
					c-0.1,0.1-0.2,0.2-0.3,0.3C167.6,123.5,167.5,123.6,167.4,123.7z"/>
				<path class="st1" d="M157.8,133.7c0.3,0.5,1.1,0.5,2.1,0.5c0.3,0,0.6,0,1-0.1c0.5,0,1-0.1,1.4-0.1h0.1c0.9,0,1.8,0.2,2.6,0.4
					c0.1-0.1,0.1-0.2,0.2-0.3l0.1-0.1c0.4-0.5,0.8-1,1.2-1.3l0,0c0-0.2-0.1-0.3-0.1-0.5c-0.5-1.4-1.3-2.8-2.4-3.8c0,0,0,0-0.1-0.1
					c-0.3-0.3-0.6-0.6-1-0.8c-0.1,0-0.1-0.1-0.2-0.1c0,0,0,0-0.1,0c-0.4-0.3-0.8-0.5-1.2-0.6h-0.1l0,0c0,0.1,0,0.1,0.1,0.2
					c0.1,0.3,0.2,0.6,0.2,0.9c0.1,0.3,0.1,0.5,0.2,0.8c-0.3-0.2-0.6-0.4-0.9-0.5c0,0,0,0-0.1,0c-0.6-0.2-1.4-0.2-2.2-0.2
					c-0.4,0-0.9,0-1.4,0c-0.3,0-0.7,0-1-0.1c0.3,1.5,0.9,2.9,1.6,4.1c-1.9-1.4-3-4-3.3-6.2l0,0l0,0c0,0.1-0.1,0.1,0,0.2
					c0.2,2.5,1,5.1,2.3,7.1C157.1,133,157.5,133.2,157.8,133.7z"/>
				<path class="st1" d="M169.5,134.4c-0.3,0.1-0.6,0.3-0.8,0.4c-0.1,0-0.1,0.1-0.2,0.1c-0.2,0.1-0.3,0.3-0.4,0.5
					c-0.1,0.1-0.1,0.1-0.2,0.2l-0.1,0.1c-0.1,0.1-0.2,0.2-0.2,0.3l0.1,0.1c0.1,0.1,0.1,0.1,0.2,0.1c0,0,0.1,0,0.1,0.1l0.4,0.4
					c0.1,0.1,0.1,0.1,0.2,0.2c0.2,0.2,0.3,0.3,0.5,0.5c0.6,0.6,1.2,1.4,1.6,2.2l0.1-0.1c0.3-0.3,0.6-0.5,0.8-0.8
					c0.2-0.1,0.3-0.3,0.5-0.4c0.6-0.5,1.1-0.9,1.6-1.3l0,0c0.1-0.8,0-1.5,0-2.3c0-0.1,0-0.1,0-0.2c-0.1-1.4-0.4-2.7-0.7-3.9
					c-0.1-0.3-0.1-0.6-0.2-0.8c0,0.1,0,0.2,0,0.2s0,0.1-0.1,0.1c0,0.1-0.1,0.1-0.1,0.2c0,0.1-0.1,0.1-0.1,0.2c0,0.1-0.1,0.1-0.2,0.2
					l-0.1,0.1l-0.1,0.1l0,0c-0.2,0.8-0.3,1.6-0.6,2.3c0,0.1-0.1,0.2-0.1,0.3c-0.1,0.1-0.2,0.1-0.3,0.1c-0.2,0.1-0.4,0.2-0.5,0.3
					c-0.3,0.1-0.5,0.2-0.7,0.3C169.6,134.3,169.6,134.3,169.5,134.4z"/>
				<path class="st1" d="M168,151.6c0.5,0.3,1,0.4,1.6,0.3c0.1,0,0.1,0,0.2,0c0.2-0.1,0.5-0.2,0.7-0.3c0.3-0.2,0.6-0.4,0.9-0.6
					c0.2-0.2,0.5-0.4,0.7-0.7c0.2-0.2,0.4-0.5,0.5-0.8c0.1-0.1,0.1-0.3,0.2-0.4c0.3-0.5,0.5-1,0.7-1.5c0.7-2,0.9-4.1,0.8-6
					c0-0.4-0.1-0.8-0.1-1.2c-0.5,0.4-1,0.9-1.5,1.4c-0.1,0.1-0.2,0.2-0.3,0.3c-0.3,0.3-0.6,0.6-0.8,0.9c-0.3,0.3-0.5,0.6-0.8,0.9
					c0,0,0,0,0,0.1l0,0c0,0.1,0,0.1,0,0.2c0,0.2-0.1,0.4-0.1,0.5c-0.1,0.6-0.4,1.1-0.7,1.6l0,0c-0.2,0.3-0.5,0.7-0.9,0.9
					c0,0,0,0-0.1,0.1c-0.2,0.1-0.5,0.2-0.7,0.3C166.5,150.6,167.5,151.3,168,151.6z"/>
				<path class="st1" d="M156.6,137.1c0.1,0.4,0.2,0.8,0.3,1.1c0.1,0.2,0.2,0.5,0.3,0.7c0.1,0.3,0.3,0.7,0.5,1
					c0.1,0.2,0.3,0.4,0.4,0.7c0.2,0.3,0.4,0.6,0.6,0.9c0.2,0.2,0.3,0.4,0.5,0.6c0.2,0.3,0.5,0.6,0.7,0.8s0.4,0.4,0.5,0.5
					c0.3,0.3,0.6,0.5,0.9,0.7c0.2,0.1,0.4,0.3,0.6,0.4c0.3,0.2,0.7,0.4,1,0.6c0.2,0.1,0.3,0.2,0.5,0.3c0.5,0.2,1.1,0.5,1.6,0.6
					c0.1,0,0.2,0,0.4,0.1c0.3,0.1,0.7,0.1,0.9,0.2c0.1,0,0.2,0,0.3,0s0.2,0,0.3,0s0.2,0,0.3,0s0.2-0.1,0.3-0.1
					c0.1-0.1,0.3-0.1,0.4-0.2c0,0,0.1,0,0.1-0.1l0.1-0.1c0.1-0.1,0.2-0.2,0.3-0.3s0.1-0.2,0.1-0.3l0,0c0.1-0.1,0.1-0.2,0.2-0.4
					c0-0.1,0.1-0.2,0.1-0.2l0,0c0,0,0,0,0-0.1c0-0.2,0.1-0.3,0.1-0.5s0.1-0.3,0.1-0.5c0-0.1,0.1-0.3,0.1-0.4l0,0c0-0.1,0-0.1,0-0.2
					c0-0.1,0-0.1,0.1-0.2c-0.1-0.5-0.2-1-0.4-1.5c-0.2-0.8-0.5-1.6-0.8-2.3c-0.1-0.2-0.1-0.3-0.2-0.5l0,0l-0.1-0.1
					c-0.1-0.1-0.3-0.3-0.4-0.4c0,0,0-0.1-0.1-0.1c-0.1-0.2-0.3-0.3-0.4-0.4c0-0.1-0.1-0.1-0.2-0.2c0,0-0.1,0-0.1-0.1
					c-0.3-0.3-0.6-0.6-1-0.8l0,0c-0.1,0-0.2-0.1-0.2-0.1h-0.1c-0.3-0.2-0.6-0.3-0.9-0.4h-0.1l0,0l0,0l0,0l0,0
					c0.1,0.3,0.2,0.6,0.2,0.9c0.1,0.3,0.1,0.6,0.2,0.9c-0.2-0.1-0.5-0.3-0.8-0.3c-0.5-0.2-1.1-0.3-1.7-0.3c-0.4,0-0.8,0-1.2,0.1
					c-0.7,0.1-1.4,0.1-2.2,0c-0.3,0-0.6,0-0.9-0.1c0.3,1.1,0.8,2.2,1.5,3.2c-1.4-0.9-2.4-2.2-3.1-3.8l0,0v0.1
					C156.4,136.6,156.5,136.9,156.6,137.1z"/>
				<path class="st1" d="M272.8,282.6L272.8,282.6c-0.5,0.1-1.1,0.3-1.6,0.4s-1.1,0.3-1.6,0.4l0,0c-2.6,0.7-5.2,1.4-7.7,2.1l0,0
					c-0.5,0.1-1,0.3-1.5,0.4l0,0c-0.5,0.1-0.9,0.3-1.4,0.4c-0.1,0-0.1,0-0.2,0h-0.1c-0.4,0.1-0.8,0.2-1.3,0.4
					c-3.1,0.9-6,1.8-8.7,2.6c-0.5,0.2-0.9,0.3-1.4,0.4c-0.5,0.2-1,0.3-1.4,0.5c-0.4,0.1-0.8,0.3-1.2,0.4c-2.5,0.8-4.6,1.6-6.4,2.3
					c-0.4,0.2-0.8,0.3-1.1,0.5c-1.9,0.8-3.2,1.5-3.8,2.1c-0.1,0.1-0.2,0.2-0.3,0.3c-0.3,0.4-0.7,0.9-1,1.4c-0.6,1-1.1,2.1-1.5,3.3
					c0.1,0.1,0.2,0.3,0.3,0.4c0.3,0.5,0.7,0.9,1,1.4c0.3,0.4,0.6,0.9,0.9,1.4c0.4,0.5,0.7,1.1,1,1.6c0.4-0.1,0.8-0.1,1.2-0.1
					s0.8,0.1,1.1,0.1h0.1c0,0,0,0,0.1,0c0.4,0.1,0.7,0.2,1,0.3c0.1,0,0.2,0.1,0.3,0.1c0.3,0.1,0.5,0.3,0.8,0.5
					c0.1,0.1,0.3,0.1,0.4,0.2c0.2,0.2,0.4,0.3,0.6,0.5c0.1,0.1,0.3,0.2,0.4,0.4c0.2,0.2,0.3,0.4,0.4,0.6c0.1,0.2,0.2,0.3,0.3,0.5
					s0.2,0.4,0.3,0.6s0.2,0.3,0.2,0.5c0.1,0.2,0.1,0.5,0.2,0.7c0,0.2,0.1,0.3,0.1,0.5c0,0.3,0.1,0.5,0.1,0.8v0.1
					c0.4-0.6,0.8-1.1,1.3-1.6c1.4-1.5,2.8-2.4,4.1-2.6c-0.7-1.8-1-3.7-0.9-5.5c0-0.5,0.1-1,0.2-1.5c0-0.2,0-0.4,0.1-0.5
					c0.1-0.4,0.2-0.7,0.3-1c0.6-2,1.8-3.8,3.3-5.1l0,0c1.1-0.9,2.4-1.6,3.9-2.1c1-0.3,2.1-0.5,3.1-0.5c0,0,0.1,0,0.2,0
					c3.5,0,6.8,1.8,8.8,5c0.1,0.1,0.1,0.3,0.2,0.4l0,0l0,0c0.4,0.6,0.7,1.3,0.9,1.9l0,0l0,0c0.3,0.8,0.5,1.7,0.6,2.6l0,0l0,0
					c0.5,3.7-0.5,7.5-3.1,10.4c-0.6,0.7-1.3,1.2-2.1,1.7c-0.2,0.1-0.4,0.2-0.6,0.3c-0.5,0.3-1.1,0.5-1.7,0.7
					c-0.2,0.1-0.4,0.2-0.6,0.2c-0.4,0.1-0.9,0.2-1.3,0.2c-0.2,0-0.4,0.1-0.7,0.1c-0.1,0-0.2,0-0.3,0H257c-1.5,0-2.8-0.3-4.1-0.8
					c0,0.7-0.1,1.5-0.3,2.2c-0.3,0.9-0.7,1.8-1,2.6c0.8,0.3,1.5,0.6,2.1,0.9c0.3,0.2,0.6,0.3,0.9,0.5c0.2,0.1,0.3,0.2,0.5,0.3
					c0.3,0.2,0.6,0.3,0.8,0.5c0.1,0.1,0.3,0.2,0.4,0.3c0.3,0.2,0.5,0.4,0.7,0.7c1,1.1,1.4,2.4,1.2,3.9c-0.4,3.5-3,4.5-5.9,5.1
					c2.3,0,4.7-0.1,7.2-0.2c0-0.2,0.1-0.4,0.1-0.6c0.3-2.8,1.9-5.3,4.9-5.8c0.7-0.2,1.5-0.4,2.4-0.4c4,0,6.4,2.7,7.2,5.7
					c20.6-2.1,42.3-6.3,57.8-10.8c11-3.3,19-6.7,21-9.9c0.6-0.9,1.2-3.3,1.7-6.7c1.6-10.3,3.1-29.5,4-43.8
					c-8.7,5.8-32.1,12-56.4,16.7C293.5,277.4,282.9,280,272.8,282.6z M279.7,319.6c-0.7,0.3-1.5,0.5-2.3,0.5c-1.2,0-2.4-0.4-3.5-1.3
					c-1.2-1-1.8-2.3-1.9-3.9c-0.1-1.8,0.8-3.9,2.3-5.2l0,0c1.2-1.1,2.6-1.6,3.9-1.6c1.3,0.1,2.4,0.6,3.4,1.7c0.9,1,1.5,2.4,1.5,3.8
					C283.2,316.3,281.8,318.6,279.7,319.6z M336.3,278.4L336.3,278.4c0.8-1.7,2.2-3,4-3.5c2.1-0.6,4.4,0,5.9,1.7
					c1.1,1.2,1.7,2.8,1.7,4.5c0,3.9-2.6,6.7-6.4,6.7c-1.6,0-3.1-0.7-4.1-1.9c-0.7-0.8-1.2-1.7-1.4-2.7
					C335.4,281.6,335.6,279.9,336.3,278.4z M326.2,292.5c1.8-0.4,3.6-0.4,5.4,0.1c6,1.6,8,7.5,7.3,12.2c-0.7,4.8-4.2,9.5-10.6,9.5
					c-0.1,0-0.2,0-0.2,0c-2.8-0.1-5.5-1.2-7.4-3.1c-1.9-2-3-4.7-3.1-7.5C317.6,298.2,321.1,293.6,326.2,292.5z M310.5,282.9
					c1.5,2.7,1,6-1.2,8.2c-1.2,1.2-2.8,1.8-4.5,1.8c0,0,0,0-0.1,0c-2.2,0-4.2-0.9-5.5-2.6s-1.8-3.9-1.4-5.9c0.5-2.3,2.3-4,4.8-4.7
					C305.8,278.8,308.9,280.1,310.5,282.9z"/>
				<path class="st1" d="M214,284.1c0.2,0.2,0.5,0.4,0.7,0.6c4.2,0.9,7.7,3.7,9.8,7.5c0.2,0.5,0.5,0.9,0.7,1.4
					c0.2,0.4,0.3,0.8,0.5,1.2c0.1,0.1,0.2,0.1,0.2,0.2l0,0c0,0.1,0.1,0.1,0.1,0.2c0.4,0.4,0.8,0.9,1.2,1.3s0.8,0.9,1.2,1.3l0.1,0.1
					c0,0,0-0.1,0.1-0.1c0.3-0.6,0.5-1.1,0.8-1.6c0.3-0.6,0.7-1.1,1.1-1.6c0.1-0.1,0.1-0.2,0.2-0.3c0.1-0.1,0.1-0.2,0.2-0.2
					c0.4-0.5,1.2-1.1,2.2-1.6c1.3-0.7,2.9-1.5,4.9-2.3c2.1-0.8,4.6-1.7,7.3-2.6c0.5-0.2,0.9-0.3,1.4-0.5s0.9-0.3,1.4-0.5
					c1.6-0.5,3.4-1,5.1-1.6l0,0c0.7-0.2,1.3-0.4,2-0.6l0,0c0.3-0.1,0.6-0.2,0.8-0.2c0.5-0.1,1-0.3,1.5-0.4c0.3-0.1,0.7-0.2,1-0.3
					l0,0c0.2,0,0.3-0.1,0.5-0.1c0.3-0.1,0.6-0.2,0.9-0.3l0,0c0.5-0.1,0.9-0.3,1.4-0.4c0,0,0,0,0.1,0c1.9-0.5,3.7-1,5.6-1.5
					c-0.6,0.1-1.2,0.1-1.7,0.2c-0.7,0.1-1.5,0.2-2.3,0.3h-0.1c-0.5,0.1-1.1,0.1-1.6,0.2c0,0,0,0-0.1,0c-0.5,0.1-0.9,0.1-1.4,0.2
					c0,0,0,0-0.1,0c-0.2,0-0.5,0.1-0.7,0.1s-0.5,0.1-0.7,0.1c0,0,0,0-0.1,0c-0.2,0-0.5,0.1-0.7,0.1c-0.5,0.1-1,0.1-1.5,0.1
					c-0.3,0-0.5,0.1-0.8,0.1l0,0c-0.5,0-1,0.1-1.5,0.1l0,0c-0.5,0-1,0.1-1.5,0.1l0,0c-1.7,0.2-3.5,0.3-5.3,0.4c-0.5,0-1,0.1-1.5,0.1
					s-1,0.1-1.5,0.1c-4,0.2-8.1,0.4-11.9,0.4c-6.8,0-13-0.5-17.2-1.8l0,0c-0.5-0.2-1-0.3-1.5-0.5c0,0.2,0.1,0.4,0.1,0.6l0,0
					C213.8,282.5,213.9,283.3,214,284.1z"/>
				<path class="st1" d="M359.5,254v-0.1v-0.1c-0.3-0.9-1.6-3.3-6.8-8.4c-2.3-2.2-4.8-4.5-7.6-6.8c-0.4-0.3-0.8-0.6-1.1-0.9
					c-0.4-0.3-0.8-0.6-1.2-0.9c-14.2-11.5-32.2-22.5-37.5-21.2c-10.5,2.5-27,10.4-45.5,21.9c0,0.3,0.1,0.7,0.1,1
					c0,1.9-0.7,3.8-1.9,5.3c-0.1,0.1-0.1,0.2-0.2,0.2c-0.3,0.3-0.6,0.5-0.9,0.8c-0.4,0.3-0.8,0.6-1.3,0.8c-0.5,0.2-0.9,0.4-1.4,0.5
					s-1,0.2-1.6,0.2c-0.1,0-0.1,0-0.2,0l0,0l-1.5-0.2c0,0,0,0-0.1,0s-0.1,0-0.2,0c-0.7-0.2-1.3-0.5-1.9-0.9c-0.1,0-0.2-0.1-0.3-0.2
					c-4.6,3.1-8.8,6.1-12.6,8.9l0,0c-0.9,0.6-1.7,1.3-2.5,1.9l0,0c-0.8,0.6-1.6,1.3-2.4,1.9l0,0c-3.1,2.5-5.8,4.7-8.1,6.8
					c-0.6,0.5-1.1,1-1.6,1.5c-0.6,0.5-1.1,1-1.6,1.5c-3.4,3.3-5.5,6-6.5,7.8l0,0c-0.3,0.6-0.5,1.1-0.5,1.6c0,0,0,0,0,0.1l0,0v0.1
					v0.1l0,0c0,0.2,0.1,0.3,0.2,0.4c0.3,0.3,0.6,0.5,1,0.7l0,0l0,0c0.5,0.3,1,0.5,1.6,0.7c0.3,0.1,0.7,0.2,1.1,0.4l0,0
					c1.2,0.3,2.6,0.6,4.2,0.8c2.8,0.4,6.1,0.6,10,0.6c3.7,0,7.9-0.1,12.5-0.4c0.5,0,1-0.1,1.5-0.1s1-0.1,1.5-0.1
					c1.7-0.1,3.5-0.3,5.3-0.4c0.5,0,1-0.1,1.5-0.1l0,0c0.5,0,1-0.1,1.5-0.1l0,0c0.7-0.1,1.3-0.1,2-0.2c0.5,0,1-0.1,1.5-0.2
					c0,0,0,0,0.1,0h0.1c0.5,0,0.9-0.1,1.4-0.1l0,0h0.1c0.5,0,0.9-0.1,1.4-0.2h0.1c0.6-0.1,1.1-0.1,1.7-0.2c0.8-0.1,1.6-0.2,2.4-0.3
					c0.5-0.1,1-0.1,1.5-0.2c1.3-0.2,2.6-0.3,3.9-0.5l0,0c0.5-0.1,1-0.1,1.5-0.2s1-0.1,1.5-0.2l0,0c0.9-0.1,1.9-0.3,2.8-0.4l0,0
					c1.5-0.2,3-0.4,4.6-0.7l0,0c1.3-0.2,2.7-0.4,4-0.6h0.1c3.5-0.6,7-1.2,10.4-1.8c2.1-0.4,4.2-0.8,6.3-1.2c1.9-0.4,3.8-0.8,5.7-1.1
					c21.7-4.4,39.8-9.7,47.8-14c2-1.1,3.4-2.1,4-3l0.1-0.1C359.5,254.2,359.5,254.2,359.5,254z M293.5,260.5c0,0.5-0.1,1-0.2,1.5
					s-0.3,1-0.6,1.4c-0.1,0.1-0.2,0.3-0.2,0.4c-0.1,0.2-0.3,0.4-0.4,0.6l-0.1,0.1c-0.1,0.2-0.3,0.3-0.4,0.5
					c-0.4,0.3-0.7,0.7-1.2,0.9c-1.3,0.8-2.9,1.4-4.6,1.4c-1.6,0-3-0.4-4.2-1.1c0,0-0.1,0-0.1-0.1c-1.7-1-2.9-2.7-3.3-4.5
					c-0.1-0.4-0.1-0.8-0.1-1.2c0-0.1,0-0.2,0-0.3l0,0c0-0.5,0.1-1,0.3-1.5l0,0c0.1-0.5,0.3-0.9,0.6-1.3c1.3-2.2,3.9-3.7,6.9-3.7
					c4.3,0,7.8,3.1,7.8,6.9C293.5,260.4,293.5,260.4,293.5,260.5z M307.7,247.9c-6,0-10.8-4-10.8-9s4.9-9,10.8-9c6,0,10.8,4,10.8,9
					S313.7,247.9,307.7,247.9z"/>
				<path class="st1" d="M339.5,283.8c0.5,0.6,1.2,0.9,2,0.9c2.1,0,3.4-1.4,3.4-3.7c0-0.9-0.3-1.8-0.9-2.5c-0.7-0.8-1.8-1.1-2.8-0.8
					c-0.9,0.3-1.7,1-2.1,1.9s-0.5,1.8-0.2,2.7C338.9,283,339.1,283.4,339.5,283.8z"/>
				<path class="st1" d="M328.1,311.3c5,0.2,7.4-3.7,7.9-7c0.5-3.5-0.9-7.7-5.2-8.9c-0.7-0.2-1.5-0.3-2.2-0.3
					c-0.6,0-1.2,0.1-1.8,0.2l0,0c-3.7,0.9-6.3,4.2-6.3,8.2c0,2.1,0.8,4,2.2,5.5C324.2,310.5,326.1,311.3,328.1,311.3z"/>
				<path class="st1" d="M278.2,311.1c-0.6,0-1.2,0.3-1.8,0.8c-0.9,0.8-1.4,2-1.4,3c0,0.7,0.3,1.2,0.8,1.7c0.8,0.6,1.7,0.8,2.6,0.4
					s1.8-1.5,1.8-3.3c0-0.7-0.3-1.4-0.7-1.9C279.1,311.4,278.6,311.1,278.2,311.1z"/>
				<path class="st1" d="M257.3,311.9L257.3,311.9c0.9,0,1.8-0.2,2.5-0.5c0.1-0.1,0.3-0.1,0.4-0.2c0.8-0.4,1.5-0.9,2.1-1.6
					c0.1-0.1,0.1-0.2,0.2-0.3c0.2-0.2,0.3-0.4,0.5-0.6c0.8-1,1.3-2.2,1.5-3.3c0-0.2,0.1-0.4,0.1-0.6c0-0.1,0-0.1,0-0.2
					c0-0.2,0.1-0.5,0.1-0.7c0.1-1,0-2-0.2-3l0,0l0,0c-0.3-1.1-0.7-2.2-1.2-3.1c-0.3-0.4-0.5-0.8-0.8-1.1c-0.4-0.5-0.8-0.8-1.3-1.2
					c-1.8-1.3-4.1-1.7-6.6-1c-2.5,0.8-3.9,2.3-4.7,3.7c-0.3,0.6-0.5,1.1-0.7,1.6c-0.1,0.2-0.1,0.4-0.2,0.6c-0.1,0.3-0.1,0.6-0.1,1
					c-0.3,2.7,0.5,5.5,2.2,7.6C252.4,310.3,254.3,311.9,257.3,311.9z"/>
				<path class="st1" d="M300.7,285.1L300.7,285.1c-0.3,1.1,0,2.4,0.8,3.4c0.5,0.7,1.6,1.5,3.2,1.5c1,0,1.8-0.4,2.5-1
					c1.6-1.5,1.4-3.4,0.7-4.6c-0.6-1-1.7-1.9-3.3-1.9c-0.4,0-0.8,0.1-1.2,0.2C301.6,283.1,300.9,284.2,300.7,285.1z"/>
				<path class="st1" d="M307.7,232.9c-4.3,0-7.9,2.7-7.9,6s3.5,6,7.9,6c4.3,0,7.9-2.7,7.9-6S312.1,232.9,307.7,232.9z"/>
				<path class="st1" d="M285.7,256.4c-1.7,0-3.2,0.7-4,1.7c-0.1,0.1-0.2,0.3-0.3,0.4c-0.2,0.3-0.3,0.6-0.4,0.9
					c0,0.2-0.1,0.3-0.1,0.5c0,0.1,0,0.2,0,0.3c0,0.2,0,0.5,0.1,0.7c0,0.2,0.1,0.3,0.2,0.5c0.6,1.6,2.4,2.7,4.6,2.7
					c0.8,0,1.5-0.2,2.1-0.4c0.5-0.2,1-0.5,1.4-0.8l0,0c0.4-0.3,0.7-0.7,0.9-1.1c0-0.1,0.1-0.2,0.1-0.2c0.2-0.4,0.3-0.8,0.3-1.3
					c0-0.1,0-0.1,0-0.2C290.4,258.1,288.3,256.4,285.7,256.4z"/>
				<path class="st1" d="M182.9,345.6c0.4-0.5,0.7-0.9,1.1-1.4c0.4-0.5,0.7-1,1.1-1.5c4.7-6.8,7.9-14.7,9.2-23.4
					c0.2-1.5,0.4-3.1,0.4-4.6c0-0.5,0.1-1,0.1-1.5s0-1,0-1.5c0-1.7-0.1-3.4-0.2-5c0-0.5-0.1-1-0.1-1.4c-0.1-0.5-0.1-1-0.2-1.5
					c-0.2-1.2-0.4-2.4-0.7-3.6l0,0c-0.1-0.5-0.2-1-0.3-1.4l0,0c-0.1-0.3-0.1-0.6-0.2-0.9c-0.1-0.2-0.1-0.4-0.2-0.6l0,0
					c-0.1-0.3-0.2-0.6-0.2-0.9c-0.1-0.5-0.3-1-0.4-1.5c-1.5-4.7-3.7-9.1-6.3-13.1l0,0c-0.3-0.5-0.7-1-1-1.5c-0.4-0.5-0.7-1-1.1-1.5
					c-0.7-0.9-1.5-1.8-2.2-2.7c-0.4-0.5-0.9-1-1.3-1.5c-0.5-0.5-0.9-1-1.4-1.4c-0.6-0.6-1.2-1.2-1.8-1.7c-0.5-0.5-1-0.9-1.5-1.3
					c-0.6-0.5-1.1-0.9-1.7-1.4c-0.3-0.2-0.5-0.4-0.8-0.6c-0.8-0.6-1.6-1.2-2.4-1.7c-0.9-0.6-1.9-1.2-2.9-1.8
					c-1.6-0.9-3.3-1.8-5.1-2.6c-0.5-0.2-0.9-0.4-1.4-0.6s-0.9-0.4-1.4-0.5c-3-1.1-6-2-9.2-2.6c-0.8-0.1-1.5-0.3-2.3-0.4h-0.1
					c-0.5-0.1-1-0.1-1.5-0.2c-5.2-0.6-10.3-0.4-15.1,0.4c-0.6,0.1-1.1,0.2-1.7,0.3c-0.6,0.1-1.1,0.2-1.7,0.4c-0.1,0-0.2,0.1-0.4,0.1
					c-0.6,0.2-1.3,0.3-1.9,0.5s-1.2,0.3-1.8,0.5c-2.3,0.7-4.5,1.6-6.7,2.6c-0.4,0.2-0.7,0.3-1.1,0.5c-0.2,0.1-0.3,0.2-0.5,0.2
					c-0.1,0-0.1,0.1-0.2,0.1c-0.6,0.3-1.2,0.6-1.8,0.9c-0.6,0.4-1.3,0.7-1.9,1.1c-0.1,0.1-0.3,0.2-0.4,0.3l0,0
					c-0.5,0.3-0.9,0.6-1.4,0.9c-0.2,0.1-0.3,0.2-0.5,0.3c-0.3,0.2-0.5,0.4-0.8,0.6l0,0c-0.3,0.2-0.6,0.4-0.9,0.7
					c-0.6,0.4-1.1,0.9-1.7,1.3c-0.2,0.1-0.3,0.3-0.5,0.4l-0.1,0.1c-0.2,0.2-0.4,0.4-0.6,0.5c-0.2,0.2-0.4,0.3-0.5,0.5
					c0,0-0.1,0-0.1,0.1c-0.4,0.3-0.7,0.6-1.1,1c-0.1,0.1-0.2,0.2-0.3,0.3c-0.7,0.7-1.4,1.4-2.1,2.2c-7.5,7.9-12.8,18.2-14.4,29.9
					c-1.4,10,0,19.7,3.6,28.3c0.5,1.2,1,2.3,1.6,3.4c1.1,2.2,2.4,4.4,3.8,6.5c0.6,0.9,1.3,1.9,2,2.8c0.1,0.1,0.2,0.3,0.3,0.4
					c8.4,10.6,20.6,18.1,35,20.1C152.4,368.4,171.2,360.2,182.9,345.6z M154.9,311.7c-1,7.4-6.9,12.4-14.2,12.2
					c-0.9,0-1.2,0.2-1.6,1c-0.7,1.6-1.8,2.9-3,3.9l0,0c-0.4,0.3-0.8,0.6-1.3,0.8l0,0c-0.5,0.3-1.1,0.5-1.6,0.6l0,0
					c-1.1,0.3-2.3,0.4-3.5,0.2c-4-0.5-7.1-3.5-7.9-7.4c-0.2-1.3-0.2-2.6,0.1-3.8c0.1-0.6,0.3-1.1,0.6-1.7c0.2-0.5,0.5-0.9,0.8-1.4
					c0.9-1.2,2.1-2.3,3.6-3.1c0.9-0.5,1-1,0.9-1.9c-0.3-4.1,1.1-7.9,3.7-10.6c0.4-0.4,0.8-0.8,1.2-1.2c0.5-0.4,1-0.8,1.6-1.1
					c1.8-1.1,3.8-1.8,5.9-2c0.9-0.1,1.7-0.1,2.5,0s1.6,0.2,2.4,0.4c3,0.8,5.6,2.7,7.4,5.2c0.4,0.5,0.7,1.1,1,1.6s0.5,1,0.7,1.6
					c0.4,1.1,0.7,2.3,0.9,3.5C155.1,309.8,155,310.8,154.9,311.7z"/>
				<path class="st1" d="M235,319.6c0-0.5-0.1-1-0.2-1.5l0,0c-0.1-0.5-0.2-1-0.3-1.5c0-0.1,0-0.1,0-0.2c-0.1-0.3-0.1-0.5-0.2-0.8
					c-0.1-0.2-0.1-0.4-0.2-0.6c-0.1-0.4-0.3-0.9-0.4-1.3c-0.2-0.6-0.5-1.2-0.7-1.9c-0.3-0.6-0.6-1.2-0.9-1.8c-0.3-0.5-0.5-1-0.8-1.5
					c-0.3-0.4-0.5-0.9-0.8-1.3c-0.3-0.5-0.7-1.1-1.1-1.6c-0.3-0.5-0.7-0.9-1-1.4c-0.1-0.1-0.1-0.2-0.2-0.2c-0.3-0.4-0.6-0.7-0.9-1.1
					c-0.1-0.1-0.2-0.3-0.3-0.4c0,0,0,0-0.1-0.1c0,0.1,0,0.1,0,0.2s0,0.2,0.1,0.3c0.1,0.5,0.2,1,0.3,1.4c0.1,0.5,0.2,1,0.3,1.5
					c0,0.3,0.1,0.5,0.1,0.8c0.2,1.3,0.4,2.6,0.5,3.9c0,0.5,0.1,1,0.1,1.5s0.1,1,0.1,1.6c0.1,3.2,0,6.5-0.4,9.8
					c-0.1,0.4-0.2,0.8-0.4,1.1c-0.3,0.5-0.7,0.8-1.4,0.9c-0.2,0-0.3,0.1-0.5,0c-1.4-0.1-1.8-1.2-1.7-2.5c0-0.4,0.1-0.9,0.1-1.3
					c0.3-2.9,0.4-5.8,0.3-8.6c0-0.5,0-1-0.1-1.5c0-0.5-0.1-1-0.2-1.5c0-0.3-0.1-0.7-0.1-1c-0.1-0.8-0.2-1.6-0.4-2.4
					c-0.1-0.6-0.2-1.1-0.3-1.7c-0.1-0.3-0.2-0.7-0.2-1c0-0.1,0-0.2-0.1-0.2c0-0.1,0-0.1,0-0.2c-0.1-0.5-0.2-1-0.4-1.5
					c-0.3-1.1-0.6-2.3-1-3.4c-0.2-0.5-0.3-1-0.5-1.4c-0.1-0.4-0.2-0.7-0.4-1.1c0-0.1-0.1-0.3-0.1-0.4c0,0,0,0,0-0.1
					c-0.2-0.4-0.3-0.9-0.7-1.2c-0.1-0.1-0.1-0.1-0.2-0.2c-0.5-0.4-0.9-0.9-1.4-1.3c-1.3-1.3-2.8-2.5-4.4-3.8
					c-0.3-0.2-0.5-0.4-0.8-0.6c0.8,1.6,1.4,3.2,2,4.7c0.2,0.5,0.4,1,0.5,1.4c0,0.1,0.1,0.2,0.1,0.4c0.1,0.4,0.2,0.7,0.4,1.1l0,0
					c0.2,0.5,0.3,1,0.5,1.4c0.1,0.5,0.3,1,0.4,1.5c0.3,1.1,0.6,2.3,0.9,3.4c0.1,0.5,0.2,1,0.3,1.5s0.2,1,0.3,1.4
					c0.2,1.5,0.4,3,0.5,4.6v0.1c0,0.1,0,0.2,0,0.4c0,0.3,0.1,0.6,0.1,0.8c0,0.1,0,0.1,0,0.2c0,0.3,0,0.5,0,0.8c0,0.2,0,0.4,0,0.7
					c0,1.4,0,2.8,0,4.2c0,0.9-0.1,1.7-0.2,2.6c0,0.5-0.1,1-0.2,1.5c0,0.4-0.1,0.8-0.1,1.2c-0.2,1.2-0.8,2-2.1,1.9s-1.8-1-1.7-2.3
					c0-0.5,0.1-1,0.2-1.5c0.2-2.5,0.3-5,0.2-7.4c0-0.5,0-1,0-1.5s0-1-0.1-1.5c-0.1-1.5-0.3-2.9-0.5-4.4c-0.1-0.5-0.2-0.9-0.3-1.4
					s-0.2-1-0.3-1.5c-0.3-1.2-0.5-2.3-0.9-3.4l0,0c-0.1-0.5-0.3-1-0.4-1.4l0,0c-0.1-0.4-0.3-0.9-0.4-1.3v-0.1l0,0
					c-0.2-0.4-0.4-0.9-0.5-1.3c-0.2-0.5-0.4-1-0.6-1.4c-1.5-3.6-3.4-7.1-5.8-10.5c-0.3-0.4-0.6-0.7-0.9-1.1
					c-0.3-0.3-0.5-0.5-0.8-0.8l0,0c-0.3-0.3-0.6-0.5-0.9-0.7c-0.3-0.2-0.5-0.3-0.8-0.5c-0.2-0.1-0.5-0.3-0.7-0.4
					c-0.1-0.1-0.3-0.2-0.4-0.2c-0.2-0.1-0.4-0.2-0.6-0.3c-0.2-0.1-0.4-0.2-0.5-0.3c-0.6-0.3-1.2-0.6-1.8-0.9
					c0.1,0.1,0.1,0.2,0.2,0.3c0.1,0.2,0.2,0.4,0.4,0.5c0.1,0.1,0.1,0.2,0.2,0.3c0,0.1,0.1,0.1,0.1,0.2c0.2,0.3,0.5,0.7,0.7,1
					c0.1,0.1,0.1,0.2,0.2,0.3c0.1,0.1,0.2,0.3,0.3,0.4c0.2,0.3,0.3,0.5,0.5,0.8c0.1,0.1,0.1,0.2,0.2,0.3l0,0
					c2.3,3.8,4.2,7.8,5.6,11.9c0.2,0.5,0.4,1,0.5,1.4s0.2,0.8,0.3,1.2l0,0c0,0.1,0,0.2,0.1,0.2c0.1,0.4,0.2,0.8,0.3,1.2l0,0
					c0.1,0.5,0.3,1,0.4,1.5l0,0c0.3,1.1,0.5,2.3,0.7,3.5c0.1,0.5,0.1,1,0.2,1.5c0.1,0.5,0.1,1,0.2,1.5c0,0.4,0.1,0.7,0.1,1.1
					c0.1,1.1,0.2,2.2,0.2,3.3c0,0.5,0,1,0,1.5s0,1,0,1.5c0,2.4-0.1,4.7-0.4,7.1c-0.2,1.3-0.7,2.4-2.2,2.3c-1.7-0.1-1.9-1.4-1.7-2.8
					c0.1-0.6,0.1-1.1,0.2-1.7c0.1-1.5,0.2-3,0.2-4.5c0-0.5,0-1,0-1.5s0-1,0-1.5c-0.1-1.5-0.2-3-0.4-4.5c-0.1-0.5-0.1-1-0.2-1.4
					c-0.1-0.5-0.1-1-0.2-1.5c-0.2-1.2-0.5-2.4-0.8-3.5l0,0c-0.1-0.5-0.3-1-0.4-1.4l0,0c-0.1-0.4-0.2-0.7-0.3-1.1
					c0-0.1-0.1-0.2-0.1-0.3l0,0c-0.1-0.4-0.2-0.7-0.3-1.1c-0.2-0.5-0.3-1-0.5-1.5c-1.6-4.2-3.7-8.3-6.3-12.2l-0.1-0.1l0,0
					c-0.1-0.1-0.2-0.2-0.3-0.3c-0.3-0.4-0.6-0.8-0.9-1.2c-0.1-0.2-0.3-0.4-0.4-0.5c-0.1-0.1-0.2-0.3-0.3-0.4
					c-0.2-0.2-0.3-0.4-0.5-0.6c-0.3-0.3-0.5-0.6-0.8-0.9c-0.2-0.3-0.5-0.6-0.7-0.8c-0.2-0.2-0.4-0.4-0.5-0.6
					c-0.5-0.6-1.1-1.2-1.6-1.7c-0.2-0.2-0.5-0.5-0.7-0.7c-0.3-0.3-0.6-0.6-0.9-0.9c-0.3-0.3-0.7-0.7-1-1c-1-1-2.1-1.7-3.3-2.3
					c-0.4-0.2-0.8-0.4-1.2-0.6c-0.1-0.1-0.2-0.1-0.4-0.2s-0.4-0.2-0.5-0.2c-0.4-0.2-0.9-0.4-1.3-0.6c-0.1,0-0.2-0.1-0.3-0.1
					c-0.2-0.1-0.4-0.2-0.6-0.3c-0.1,0-0.2-0.1-0.2-0.1l0.1,0.1c0.1,0.1,0.3,0.3,0.4,0.4c0.2,0.2,0.4,0.4,0.7,0.6l0,0
					c0.1,0.1,0.1,0.1,0.2,0.2c0.4,0.4,0.8,0.8,1.2,1.2c0.5,0.6,1.1,1.1,1.6,1.7c0.3,0.3,0.5,0.6,0.8,0.9c0.4,0.5,0.8,1,1.3,1.5
					c0.4,0.5,0.8,1,1.2,1.6c0.1,0.1,0.2,0.2,0.2,0.3c0.2,0.3,0.5,0.6,0.7,1c0.4,0.5,0.7,1,1.1,1.5c0.3,0.4,0.5,0.8,0.8,1.2
					c0.1,0.1,0.1,0.2,0.2,0.3c0.3,0.5,0.6,1,0.9,1.5l0,0c2.4,4.1,4.3,8.4,5.6,12.8c0.1,0.5,0.3,1,0.4,1.5c0.1,0.3,0.2,0.6,0.2,1l0,0
					c0,0.2,0.1,0.3,0.1,0.5c0.1,0.3,0.2,0.6,0.2,1l0,0c0.1,0.5,0.2,1,0.3,1.4l0,0c0.2,1.2,0.4,2.4,0.6,3.6c0.1,0.5,0.1,1,0.2,1.5
					c0.1,0.5,0.1,1,0.1,1.5c0.1,1.6,0.2,3.2,0.2,4.8c0,0.5,0,1,0,1.5s-0.1,1-0.1,1.5c-0.5,9.9-3.5,19.7-8.9,28.3
					c-0.3,0.5-0.7,1-1,1.5s-0.7,1-1,1.5c-5.4,7.6-12.8,14.1-22.1,18.7c0.4,0.1,0.6,0.1,0.8,0.1c14.3-2.4,28.2-6,41.3-12.2
					c6.7-3.2,13-6.9,18.4-12c0.7-0.7,1.5-1.4,2.2-2.2c0.1-0.1,0.2-0.2,0.3-0.3c0.6-0.7,1.2-1.3,1.7-2c0.8-1.1,1.5-2.2,2.1-3.3
					c0.4-0.7,0.8-1.5,1.1-2.3c0.1-0.2,0.2-0.3,0.2-0.5C234.9,326.5,235.3,323.1,235,319.6L235,319.6z"/>
				<path class="st1" d="M253,326.9c0.7-0.2,1.5-0.4,1.5-1.4v-0.1c0-0.5-0.2-0.9-0.5-1.2c-0.1-0.1-0.1-0.1-0.2-0.2
					c-0.2-0.2-0.5-0.3-0.7-0.5c-0.1-0.1-0.2-0.1-0.4-0.1c-0.1,0-0.2-0.1-0.3-0.1c-0.4-0.2-0.9-0.3-1.3-0.4c-0.8-0.2-1.6-0.3-2.5-0.2
					c-1.1,0.1-2-0.1-2.5-1.2c-0.4-1,0.1-1.8,0.7-2.5c1.2-1.3,2.1-2.6,2.4-4.6c0.2-1.1-0.2-2.2-1.3-2.8c-1.1-0.6-1.7,0.5-2.3,1.2
					c-1.4,1.6-2.5,3.4-3.5,5.3c-0.3,0.5-0.5,0.9-0.7,1.4s-0.5,1-0.7,1.4c-0.6,1.3-1.1,2.5-1.7,3.8c-0.2,0.4-0.1,0.7-0.1,1.1
					c0.3,1.7,0.8,3.3,1.4,4.8c0,0.1,0.1,0.1,0.1,0.2s0,0.1,0.1,0.2c0.2,0.4,0.4,0.8,0.6,1.2c0.2,0.4,0.5,0.8,0.7,1.2
					c0,0.1,0.1,0.1,0.1,0.2c0.4,0.7,0.9,1.3,1.4,2c0.8,1,1.8,1.8,3,2.1c1.1,0.3,1.7,0,1.9-1.1c0.2-1,0.2-1.9-0.2-2.7
					c-0.4-0.9-1.1-1.7-2.2-2.4c-0.2-0.1-0.4-0.2-0.5-0.3l0,0c-0.2-0.1-0.3-0.2-0.4-0.3c-0.3-0.2-0.5-0.4-0.6-0.7
					c-0.2-0.4-0.3-0.8-0.1-1.3c0.1-0.3,0.2-0.5,0.3-0.7l0,0c0.2-0.3,0.4-0.4,0.7-0.5c0.2-0.1,0.4-0.1,0.6-0.1c0.5,0,0.9,0,1.4,0
					c0.2,0,0.4,0,0.7,0c0.7,0,1.3,0,2-0.1c0.1,0,0.3,0,0.4,0c0.8-0.1,1.6-0.2,2.4-0.5C252.9,326.9,253,326.9,253,326.9z"/>
				<path class="st1" d="M147.9,302.8c-1.4-1.3-3.2-2.2-5.3-2.5c-1.7-0.2-3.3,0-4.8,0.5c-0.7,0.3-1.4,0.6-2,1c-3.3,2.2-5.2,6.5-4,11
					c0.6,2.2,0.2,2.9-1.9,3.4c-2.1,0.5-3.5,1.6-4.1,3.2c-0.2,0.6-0.3,1.2-0.3,1.8c0,0.2,0,0.4,0,0.6c0.1,1,0.4,1.8,1,2.6
					c0.4,0.6,0.9,1,1.4,1.4c0.8,0.5,1.7,0.8,2.6,0.8c0.2,0,0.3,0,0.5,0c0.6,0,1.2-0.2,1.8-0.4c1.6-0.7,2.8-2.2,3.1-4.3
					c0.3-2.2,1.1-2.7,3.2-2.2c5.5,1.3,10.9-2.2,11.9-7.7c0.5-2.7-0.1-5.4-1.6-7.4C148.9,303.9,148.4,303.4,147.9,302.8z"/>
			</g>
		</g>
	</g>
</g>
</svg>
