<?xml version="1.0" encoding="utf-8"?>
<!-- Generator: Adobe Illustrator 23.0.0, SVG Export Plug-In . SVG Version: 6.00 Build 0)  -->
<svg version="1.1" id="Layer_1" xmlns="http://www.w3.org/2000/svg" xmlns:xlink="http://www.w3.org/1999/xlink" x="0px" y="0px"
	 viewBox="0 0 202.1 203.7" style="enable-background:new 0 0 202.1 203.7;" xml:space="preserve">
<style type="text/css">
	.st0{fill-rule:evenodd;clip-rule:evenodd;fill:#FFFFFF;}
	.st1{fill:none;stroke:#000000;stroke-miterlimit:10;}
	.st2{fill-rule:evenodd;clip-rule:evenodd;fill:url(#SVGID_1_);}
	.st3{fill-rule:evenodd;clip-rule:evenodd;fill:#F7FFFA;}
</style>
<g>
	<g>
		<path class="st0" d="M102.7,12c-48.4,0-87.6,39.2-87.6,87.6c0,16.5,4.6,32,12.6,45.2l-15.8,47l48.5-15.5
			c12.5,6.9,27,10.9,42.3,10.9c48.4,0,87.6-39.2,87.6-87.6C190.2,51.2,151,12,102.7,12z"/>
	</g>
	<g>
		<path class="st1" d="M102.7,12c-48.4,0-87.6,39.2-87.6,87.6c0,16.5,4.6,32,12.6,45.2l-15.8,47l48.5-15.5
			c12.5,6.9,27,10.9,42.3,10.9c48.4,0,87.6-39.2,87.6-87.6C190.2,51.2,151,12,102.7,12z"/>
	</g>
</g>
<linearGradient id="SVGID_1_" gradientUnits="userSpaceOnUse" x1="102.6749" y1="172.415" x2="102.6749" y2="26.6386">
	<stop  offset="0" style="stop-color:#196B26"/>
	<stop  offset="3.325653e-02" style="stop-color:#1B7329"/>
	<stop  offset="0.1593" style="stop-color:#218D32"/>
	<stop  offset="0.2996" style="stop-color:#25A038"/>
	<stop  offset="0.4596" style="stop-color:#29AE3D"/>
	<stop  offset="0.6568" style="stop-color:#2AB740"/>
	<stop  offset="1" style="stop-color:#2BB941"/>
</linearGradient>
<path class="st2" d="M102.7,26.6c-40.2,0-72.9,32.7-72.9,72.9c0,16,5.2,30.7,13.9,42.7l-9.1,27.1l28-9c11.5,7.6,25.3,12.1,40.1,12.1
	c40.2,0,72.9-32.7,72.9-72.9C175.6,59.3,142.9,26.6,102.7,26.6z"/>
<path class="st3" d="M147.9,122.2c-0.5-1-2-1.6-4.2-2.8c-2.2-1.2-13-7-15-7.8c-2-0.8-3.5-1.2-5.1,0.9c-1.6,2.2-6,7-7.4,8.5
	c-1.4,1.4-2.7,1.6-4.9,0.4c-2.2-1.2-9.3-3.8-17.6-11.8C87.4,103.4,83.2,96,82,93.7c-1.2-2.3,0-3.5,1.2-4.5c1-1,2.3-2.5,3.5-3.8
	c1.2-1.3,1.6-2.2,2.4-3.6c0.8-1.5,0.5-2.8,0-3.9c-0.5-1.1-4.6-12.3-6.3-16.8c-1.7-4.5-3.6-3.9-4.9-3.9c-1.3,0-2.8-0.3-4.3-0.3
	c-1.5-0.1-3.9,0.4-6.1,2.6c-2.1,2.2-8.1,7.3-8.5,18.3c-0.4,11,7.2,21.9,8.3,23.5c1.1,1.5,14.5,25.4,36.9,35.2
	c22.4,9.8,22.5,6.8,26.6,6.6c4.1-0.2,13.4-4.9,15.5-10.1C148.3,127.6,148.4,123.1,147.9,122.2z"/>
</svg>
